<svg xmlns="http://www.w3.org/2000/svg">
  <symbol id="gear" viewBox="0 0 24 25" fill="var(--icon-color-1)">
    <path d="M19.43 13.3133C19.47 12.9933 19.5 12.6733 19.5 12.3333C19.5 11.9933 19.47 11.6733 19.43 11.3533L21.54 9.70331C21.73 9.55331 21.78 9.28331 21.66 9.06331L19.66 5.60331C19.57 5.44331 19.4 5.35331 19.22 5.35331C19.16 5.35331 19.1 5.36331 19.05 5.38331L16.56 6.38331C16.04 5.98331 15.48 5.65331 14.87 5.40331L14.49 2.75331C14.46 2.51331 14.25 2.33331 14 2.33331H10C9.75002 2.33331 9.54002 2.51331 9.51002 2.75331L9.13002 5.40331C8.52002 5.65331 7.96002 5.99331 7.44002 6.38331L4.95002 5.38331C4.89002 5.36331 4.83002 5.35331 4.77002 5.35331C4.60002 5.35331 4.43002 5.44331 4.34002 5.60331L2.34002 9.06331C2.21002 9.28331 2.27002 9.55331 2.46002 9.70331L4.57002 11.3533C4.53002 11.6733 4.50002 12.0033 4.50002 12.3333C4.50002 12.6633 4.53002 12.9933 4.57002 13.3133L2.46002 14.9633C2.27002 15.1133 2.22002 15.3833 2.34002 15.6033L4.34002 19.0633C4.43002 19.2233 4.60002 19.3133 4.78002 19.3133C4.84002 19.3133 4.90002 19.3033 4.95002 19.2833L7.44002 18.2833C7.96002 18.6833 8.52002 19.0133 9.13002 19.2633L9.51002 21.9133C9.54002 22.1533 9.75002 22.3333 10 22.3333H14C14.25 22.3333 14.46 22.1533 14.49 21.9133L14.87 19.2633C15.48 19.0133 16.04 18.6733 16.56 18.2833L19.05 19.2833C19.11 19.3033 19.17 19.3133 19.23 19.3133C19.4 19.3133 19.57 19.2233 19.66 19.0633L21.66 15.6033C21.78 15.3833 21.73 15.1133 21.54 14.9633L19.43 13.3133ZM17.45 11.6033C17.49 11.9133 17.5 12.1233 17.5 12.3333C17.5 12.5433 17.48 12.7633 17.45 13.0633L17.31 14.1933L18.2 14.8933L19.28 15.7333L18.58 16.9433L17.31 16.4333L16.27 16.0133L15.37 16.6933C14.94 17.0133 14.53 17.2533 14.12 17.4233L13.06 17.8533L12.9 18.9833L12.7 20.3333H11.3L11.11 18.9833L10.95 17.8533L9.89002 17.4233C9.46002 17.2433 9.06002 17.0133 8.66002 16.7133L7.75002 16.0133L6.69002 16.4433L5.42002 16.9533L4.72002 15.7433L5.80002 14.9033L6.69002 14.2033L6.55002 13.0733C6.52002 12.7633 6.50002 12.5333 6.50002 12.3333C6.50002 12.1333 6.52002 11.9033 6.55002 11.6033L6.69002 10.4733L5.80002 9.77331L4.72002 8.93331L5.42002 7.72331L6.69002 8.23331L7.73002 8.65331L8.63002 7.97331C9.06002 7.65331 9.47002 7.41331 9.88002 7.24331L10.94 6.81331L11.1 5.68331L11.3 4.33331H12.69L12.88 5.68331L13.04 6.81331L14.1 7.24331C14.53 7.42331 14.93 7.65331 15.33 7.95331L16.24 8.65331L17.3 8.22331L18.57 7.71331L19.27 8.92331L18.2 9.77331L17.31 10.4733L17.45 11.6033ZM12 8.33331C9.79002 8.33331 8.00002 10.1233 8.00002 12.3333C8.00002 14.5433 9.79002 16.3333 12 16.3333C14.21 16.3333 16 14.5433 16 12.3333C16 10.1233 14.21 8.33331 12 8.33331ZM12 14.3333C10.9 14.3333 10 13.4333 10 12.3333C10 11.2333 10.9 10.3333 12 10.3333C13.1 10.3333 14 11.2333 14 12.3333C14 13.4333 13.1 14.3333 12 14.3333Z" />
  </symbol>
  <symbol id="voice-over" viewBox="0 0 24 25" fill="var(--icon-color-1)">
    <path d="M16.76 5.69331L15.08 7.38331C15.88 8.51331 15.91 9.96331 15.17 11.1233L16.87 12.8233C18.77 10.8033 18.74 7.84331 16.76 5.69331ZM20.07 2.33331L18.44 3.96331C21.16 6.93331 21.2 11.3533 18.58 14.5233L20.22 16.1633C23.96 12.2733 23.93 6.32331 20.07 2.33331ZM9.43 5.37331L12.96 8.90331C12.76 7.04331 11.29 5.57331 9.43 5.37331ZM4.41 3.19331L3 4.60331L5.62 7.22331C5.23 7.83331 5 8.55331 5 9.33331C5 11.5433 6.79 13.3333 9 13.3333C9.78 13.3333 10.5 13.1033 11.11 12.7133L15.51 17.1133C13.74 15.9333 10.78 15.3333 9 15.3333C6.33 15.3333 1 16.6733 1 19.3333V21.3333H17V19.3333C17 18.9633 16.89 18.6333 16.71 18.3133L19.73 21.3333L21.14 19.9233L4.41 3.19331ZM3 19.3333C3.22 18.6133 6.31 17.3333 9 17.3333C11.7 17.3333 14.8 18.6233 15 19.3333H3ZM9 11.3333C7.9 11.3333 7 10.4333 7 9.33331C7 9.11331 7.04 8.91331 7.11 8.71331L9.62 11.2233C9.42 11.2933 9.22 11.3333 9 11.3333Z" />
  </symbol>
  <symbol id="trashcan" viewBox="0 0 24 25" fill="var(--icon-color-1)">
    <path d="M16 9.33331V19.3333H8V9.33331H16ZM14.5 3.33331H9.5L8.5 4.33331H5V6.33331H19V4.33331H15.5L14.5 3.33331ZM18 7.33331H6V19.3333C6 20.4333 6.9 21.3333 8 21.3333H16C17.1 21.3333 18 20.4333 18 19.3333V7.33331Z" />
  </symbol>
  <symbol id="lock" viewBox="0 0 25 24" fill="var(--icon-color-1)">
    <path d="M18.5898 8H17.5898V6C17.5898 3.24 15.3498 1 12.5898 1C9.82984 1 7.58984 3.24 7.58984 6V8H6.58984C5.48984 8 4.58984 8.9 4.58984 10V20C4.58984 21.1 5.48984 22 6.58984 22H18.5898C19.6898 22 20.5898 21.1 20.5898 20V10C20.5898 8.9 19.6898 8 18.5898 8ZM9.58984 6C9.58984 4.34 10.9298 3 12.5898 3C14.2498 3 15.5898 4.34 15.5898 6V8H9.58984V6ZM18.5898 20H6.58984V10H18.5898V20ZM12.5898 17C13.6898 17 14.5898 16.1 14.5898 15C14.5898 13.9 13.6898 13 12.5898 13C11.4898 13 10.5898 13.9 10.5898 15C10.5898 16.1 11.4898 17 12.5898 17Z" />
  </symbol>
  <symbol id="pen" viewBox="0 0 25 24" fill="var(--icon-color-1)">
    <path d="M14.6498 9.02L15.5698 9.94L6.50984 19H5.58984V18.08L14.6498 9.02ZM18.2498 3C17.9998 3 17.7398 3.1 17.5498 3.29L15.7198 5.12L19.4698 8.87L21.2998 7.04C21.6898 6.65 21.6898 6.02 21.2998 5.63L18.9598 3.29C18.7598 3.09 18.5098 3 18.2498 3ZM14.6498 6.19L3.58984 17.25V21H7.33984L18.3998 9.94L14.6498 6.19Z" />
  </symbol>
  <symbol id="mail-done" viewBox="0 0 22 22" fill="var(--icon-color-1)">
    <path d="M18.3334 3.66669H3.66671C2.65837 3.66669 1.84254 4.49169 1.84254 5.50002L1.83337 16.5C1.83337 17.5084 2.65837 18.3334 3.66671 18.3334H11V16.5H3.66671V7.33335L11 11.9167L18.3334 7.33335V11.9167H20.1667V5.50002C20.1667 4.49169 19.3417 3.66669 18.3334 3.66669ZM11 10.0834L3.66671 5.50002H18.3334L11 10.0834ZM15.895 20.1667L12.65 16.9217L13.9425 15.6292L15.8859 17.5725L19.7725 13.6859L21.0834 14.9784L15.895 20.1667Z" />
  </symbol>
  <symbol id="bell" viewBox="0 0 22 22" fill="var(--icon-color-1)">
    <path d="M11 20.1667C12.0083 20.1667 12.8333 19.3417 12.8333 18.3334H9.16663C9.16663 19.3417 9.99163 20.1667 11 20.1667ZM16.5 14.6667V10.0834C16.5 7.26919 15.0058 4.91335 12.375 4.29002V3.66669C12.375 2.90585 11.7608 2.29169 11 2.29169C10.2391 2.29169 9.62496 2.90585 9.62496 3.66669V4.29002C7.00329 4.91335 5.49996 7.26002 5.49996 10.0834V14.6667L3.66663 16.5V17.4167H18.3333V16.5L16.5 14.6667ZM14.6666 15.5834H7.33329V10.0834C7.33329 7.81002 8.71746 5.95835 11 5.95835C13.2825 5.95835 14.6666 7.81002 14.6666 10.0834V15.5834Z" />
  </symbol>
  <symbol id="arrow" viewBox="0 0 14 8" fill="var(--icon-color-1)">
    <path d="M2 0L7 5L12 0L14 1L7 8L0 1L2 0Z" />
  </symbol>
  <symbol id="add" viewBox="0 0 20 20" fill="var(--icon-color-1)">
    <path d="M10.8333 5.83341H9.16663V9.16675H5.83329V10.8334H9.16663V14.1667H10.8333V10.8334H14.1666V9.16675H10.8333V5.83341ZM9.99996 1.66675C5.39996 1.66675 1.66663 5.40008 1.66663 10.0001C1.66663 14.6001 5.39996 18.3334 9.99996 18.3334C14.6 18.3334 18.3333 14.6001 18.3333 10.0001C18.3333 5.40008 14.6 1.66675 9.99996 1.66675ZM9.99996 16.6667C6.32496 16.6667 3.33329 13.6751 3.33329 10.0001C3.33329 6.32508 6.32496 3.33341 9.99996 3.33341C13.675 3.33341 16.6666 6.32508 16.6666 10.0001C16.6666 13.6751 13.675 16.6667 9.99996 16.6667Z" />
  </symbol>
  <symbol id="outlined-dots" viewBox="0 0 24 6" fill="var(--icon-color-1)">
    <path d="M6 3C6 3.79565 5.68393 4.55871 5.12132 5.12132C4.55871 5.68393 3.79565 6 3 6C2.20435 6 1.44129 5.68393 0.878681 5.12132C0.316071 4.55871 0 3.79565 0 3C0 2.20435 0.316071 1.44129 0.878681 0.87868C1.44129 0.316071 2.20435 0 3 0C3.79565 0 4.55871 0.316071 5.12132 0.87868C5.68393 1.44129 6 2.20435 6 3ZM15 3C15 3.79565 14.6839 4.55871 14.1213 5.12132C13.5587 5.68393 12.7956 6 12 6C11.2044 6 10.4413 5.68393 9.87868 5.12132C9.31607 4.55871 9 3.79565 9 3C9 2.20435 9.31607 1.44129 9.87868 0.87868C10.4413 0.316071 11.2044 0 12 0C12.7956 0 13.5587 0.316071 14.1213 0.87868C14.6839 1.44129 15 2.20435 15 3ZM24 3C24 3.79565 23.6839 4.55871 23.1213 5.12132C22.5587 5.68393 21.7956 6 21 6C20.2044 6 19.4413 5.68393 18.8787 5.12132C18.3161 4.55871 18 3.79565 18 3C18 2.20435 18.3161 1.44129 18.8787 0.87868C19.4413 0.316071 20.2044 0 21 0C21.7956 0 22.5587 0.316071 23.1213 0.87868C23.6839 1.44129 24 2.20435 24 3ZM22.5 3C22.5 2.60218 22.342 2.22064 22.0607 1.93934C21.7794 1.65804 21.3978 1.5 21 1.5C20.6022 1.5 20.2206 1.65804 19.9393 1.93934C19.658 2.22064 19.5 2.60218 19.5 3C19.5 3.39782 19.658 3.77936 19.9393 4.06066C20.2206 4.34196 20.6022 4.5 21 4.5C21.3978 4.5 21.7794 4.34196 22.0607 4.06066C22.342 3.77936 22.5 3.39782 22.5 3ZM13.5 3C13.5 2.60218 13.342 2.22064 13.0607 1.93934C12.7794 1.65804 12.3978 1.5 12 1.5C11.6022 1.5 11.2206 1.65804 10.9393 1.93934C10.658 2.22064 10.5 2.60218 10.5 3C10.5 3.39782 10.658 3.77936 10.9393 4.06066C11.2206 4.34196 11.6022 4.5 12 4.5C12.3978 4.5 12.7794 4.34196 13.0607 4.06066C13.342 3.77936 13.5 3.39782 13.5 3ZM4.5 3C4.5 2.60218 4.34197 2.22064 4.06066 1.93934C3.77936 1.65804 3.39783 1.5 3 1.5C2.60217 1.5 2.22064 1.65804 1.93934 1.93934C1.65803 2.22064 1.5 2.60218 1.5 3C1.5 3.39782 1.65803 3.77936 1.93934 4.06066C2.22064 4.34196 2.60217 4.5 3 4.5C3.39783 4.5 3.77936 4.34196 4.06066 4.06066C4.34197 3.77936 4.5 3.39782 4.5 3Z" />
  </symbol>
  <symbol id="add-image" viewBox="0 0 22 22" fill="var(--icon-color-1)">
    <path d="M16.4997 18.3334H3.66634V5.50008H11.9163V3.66675H3.66634C2.65801 3.66675 1.83301 4.49175 1.83301 5.50008V18.3334C1.83301 19.3417 2.65801 20.1667 3.66634 20.1667H16.4997C17.508 20.1667 18.333 19.3417 18.333 18.3334V10.0834H16.4997V18.3334ZM9.35884 15.4276L7.56217 13.2642L5.04134 16.5001H15.1247L11.8797 12.1826L9.35884 15.4276ZM18.333 3.66675V0.916748H16.4997V3.66675H13.7497C13.7588 3.67591 13.7497 5.50008 13.7497 5.50008H16.4997V8.24092C16.5088 8.25008 18.333 8.24092 18.333 8.24092V5.50008H21.083V3.66675H18.333Z" />
  </symbol>
  <symbol id="cloud-download" viewBox="0 0 49 48" fill="var(--icon-color-1)">
    <g clip-path="url(#clip0_985_40930)">
      <path d="M39.2 20.08C37.84 13.18 31.78 8 24.5 8C18.72 8 13.7 11.28 11.2 16.08C5.18 16.72 0.5 21.82 0.5 28C0.5 34.62 5.88 40 12.5 40H38.5C44.02 40 48.5 35.52 48.5 30C48.5 24.72 44.4 20.44 39.2 20.08ZM38.5 36H12.5C8.08 36 4.5 32.42 4.5 28C4.5 23.9 7.56 20.48 11.62 20.06L13.76 19.84L14.76 17.94C16.66 14.28 20.38 12 24.5 12C29.74 12 34.26 15.72 35.28 20.86L35.88 23.86L38.94 24.08C42.06 24.28 44.5 26.9 44.5 30C44.5 33.3 41.8 36 38.5 36ZM27.4 20H21.6V26H16.5L24.5 34L32.5 26H27.4V20Z" />
    </g>
    <defs>
      <clipPath id="clip0_985_40930">
        <rect width="48" height="48" fill="white" transform="translate(0.5)"/>
      </clipPath>
    </defs>
  </symbol>
  <symbol id="loupe" viewBox="0 0 24 24" fill="none">
    <path d="M10.29 17.4444C13.7638 17.4444 16.5799 14.6586 16.5799 11.2222C16.5799 7.78578 13.7638 5 10.29 5C6.81611 5 4 7.78578 4 11.2222C4 14.6586 6.81611 17.4444 10.29 17.4444Z" stroke="var(--icon-color-1)" stroke-width="2" stroke-linecap="round" stroke-linejoin="round"/>
    <path d="M20 19L16.5798 15.6167" stroke="var(--icon-color-1)" stroke-width="2" stroke-linecap="round" stroke-linejoin="round"/>
  </symbol>
  <symbol id="bag-simple" viewBox="0 0 24 24" fill="var(--icon-color-1)">
    <path d="M14 6.97998V4.97998H10V6.97998H14ZM4 8.97998V19.98H20V8.97998H4ZM20 6.97998C21.11 6.97998 22 7.86998 22 8.97998V19.98C22 21.09 21.11 21.98 20 21.98H4C2.89 21.98 2 21.09 2 19.98L2.01 8.97998C2.01 7.86998 2.89 6.97998 4 6.97998H8V4.97998C8 3.86998 8.89 2.97998 10 2.97998H14C15.11 2.97998 16 3.86998 16 4.97998V6.97998H20Z" />
  </symbol>
  <symbol id="sport-soccer" viewBox="0 0 24 25" fill="var(--icon-color-1)">
    <path d="M12 2.97998C6.48 2.97998 2 7.45998 2 12.98C2 18.5 6.48 22.98 12 22.98C17.52 22.98 22 18.5 22 12.98C22 7.45998 17.52 2.97998 12 2.97998ZM13 6.27998L14.35 5.32998C16.17 5.88998 17.72 7.08998 18.73 8.66998L18.34 10.01L16.99 10.47L13 7.67998V6.27998ZM9.65 5.32998L11 6.27998V7.67998L7.01 10.47L5.66 10.01L5.27 8.66998C6.28 7.09998 7.83 5.89998 9.65 5.32998ZM7.08 18.09L5.94 18.19C4.73 16.79 4 14.97 4 12.98C4 12.86 4.01 12.75 4.02 12.63L5.02 11.9L6.4 12.38L7.86 16.72L7.08 18.09ZM14.5 20.57C13.71 20.83 12.87 20.98 12 20.98C11.13 20.98 10.29 20.83 9.5 20.57L8.81 19.08L9.45 17.98H14.56L15.2 19.09L14.5 20.57ZM14.27 15.98H9.73L8.38 11.96L12 9.41998L15.63 11.96L14.27 15.98ZM18.06 18.19L16.92 18.09L16.13 16.72L17.59 12.38L18.98 11.91L19.98 12.64C19.99 12.75 20 12.86 20 12.98C20 14.97 19.27 16.79 18.06 18.19Z" />
  </symbol>
  <symbol id="stats" viewBox="0 0 24 24" fill="var(--icon-color-1)">
    <path d="M10 20H14V4H10V20ZM4 20H8V12H4V20ZM16 9V20H20V9H16Z" />
  </symbol>
  <symbol id="logo-full" viewBox="0 0 143 42" fill="none">
    <path d="M34.006 36.8064V39.095C34.006 39.2839 34.0461 39.4185 34.1264 39.4988C34.2067 39.5744 34.3461 39.6122 34.5444 39.6122H35.0191V40.1577H34.4382C34.0792 40.1577 33.8099 40.0751 33.6304 39.9098C33.451 39.7444 33.3612 39.4728 33.3612 39.095V36.8064H32.8582V36.275H33.3612V35.2973H34.006V36.275H35.0191V36.8064H34.006Z" fill="#A6B0CF"/>
    <path d="M37.7275 36.2042C38.0204 36.2042 38.2849 36.268 38.5211 36.3955C38.7572 36.5183 38.9415 36.7049 39.0737 36.9552C39.2107 37.2056 39.2792 37.5102 39.2792 37.8692V40.1577H38.6415V37.9613C38.6415 37.574 38.5447 37.2788 38.351 37.0757C38.1574 36.8678 37.8928 36.7639 37.5575 36.7639C37.2174 36.7639 36.9458 36.8702 36.7427 37.0828C36.5443 37.2953 36.4451 37.6047 36.4451 38.0109V40.1577H35.8003V34.9147H36.4451V36.8277C36.5726 36.6293 36.7474 36.4758 36.9694 36.3671C37.1961 36.2585 37.4488 36.2042 37.7275 36.2042Z" fill="#A6B0CF"/>
    <path d="M43.875 38.0676C43.875 38.1904 43.8679 38.3203 43.8537 38.4573H40.7504C40.774 38.8399 40.9039 39.1398 41.1401 39.3571C41.381 39.5697 41.6715 39.6759 42.0116 39.6759C42.2903 39.6759 42.5217 39.6122 42.7059 39.4846C42.8949 39.3524 43.0271 39.1776 43.1027 38.9603H43.7971C43.6932 39.3335 43.4853 39.6382 43.1736 39.8743C42.8618 40.1058 42.4745 40.2215 42.0116 40.2215C41.6432 40.2215 41.3125 40.1388 41.0197 39.9735C40.7315 39.8082 40.5048 39.5744 40.3395 39.2721C40.1742 38.9651 40.0915 38.6108 40.0915 38.2093C40.0915 37.8078 40.1718 37.4559 40.3324 37.1536C40.493 36.8513 40.7174 36.6199 41.0055 36.4593C41.2983 36.2939 41.6337 36.2113 42.0116 36.2113C42.38 36.2113 42.7059 36.2916 42.9894 36.4522C43.2728 36.6128 43.49 36.8348 43.6412 37.1182C43.7971 37.3969 43.875 37.7133 43.875 38.0676ZM43.209 37.933C43.209 37.6874 43.1547 37.4772 43.046 37.3024C42.9374 37.1229 42.7886 36.9883 42.5997 36.8985C42.4154 36.8041 42.21 36.7568 41.9833 36.7568C41.6573 36.7568 41.3786 36.8607 41.1472 37.0686C40.9205 37.2764 40.7906 37.5645 40.7575 37.933H43.209Z" fill="#A6B0CF"/>
    <path d="M47.2597 36.9906C47.3873 36.7686 47.5762 36.5844 47.8266 36.438C48.0816 36.2868 48.3768 36.2113 48.7122 36.2113C49.057 36.2113 49.3688 36.2939 49.6475 36.4593C49.9309 36.6246 50.1529 36.8584 50.3135 37.1607C50.4741 37.4583 50.5544 37.8054 50.5544 38.2022C50.5544 38.5943 50.4741 38.9438 50.3135 39.2508C50.1529 39.5579 49.9309 39.7964 49.6475 39.9664C49.3688 40.1365 49.057 40.2215 48.7122 40.2215C48.3816 40.2215 48.0887 40.1483 47.8336 40.0019C47.5833 39.8507 47.392 39.6641 47.2597 39.4421V41.9999H46.615V36.275H47.2597V36.9906ZM49.8954 38.2022C49.8954 37.9094 49.8364 37.6543 49.7183 37.437C49.6002 37.2197 49.4396 37.0544 49.2365 36.941C49.0381 36.8277 48.8185 36.771 48.5776 36.771C48.3414 36.771 48.1218 36.83 47.9187 36.9481C47.7203 37.0615 47.5597 37.2292 47.4369 37.4512C47.3188 37.6685 47.2597 37.9212 47.2597 38.2093C47.2597 38.5022 47.3188 38.7596 47.4369 38.9816C47.5597 39.1989 47.7203 39.3666 47.9187 39.4846C48.1218 39.598 48.3414 39.6547 48.5776 39.6547C48.8185 39.6547 49.0381 39.598 49.2365 39.4846C49.4396 39.3666 49.6002 39.1989 49.7183 38.9816C49.8364 38.7596 49.8954 38.4998 49.8954 38.2022Z" fill="#A6B0CF"/>
    <path d="M53.0964 40.2215C52.7327 40.2215 52.4021 40.1388 52.1045 39.9735C51.8116 39.8082 51.5802 39.5744 51.4101 39.2721C51.2448 38.9651 51.1621 38.6108 51.1621 38.2093C51.1621 37.8125 51.2472 37.463 51.4172 37.1607C51.592 36.8537 51.8282 36.6199 52.1257 36.4593C52.4233 36.2939 52.7563 36.2113 53.1248 36.2113C53.4932 36.2113 53.8262 36.2939 54.1238 36.4593C54.4214 36.6199 54.6552 36.8513 54.8252 37.1536C55 37.4559 55.0874 37.8078 55.0874 38.2093C55.0874 38.6108 54.9976 38.9651 54.8181 39.2721C54.6434 39.5744 54.4048 39.8082 54.1025 39.9735C53.8002 40.1388 53.4648 40.2215 53.0964 40.2215ZM53.0964 39.6547C53.3279 39.6547 53.5451 39.6004 53.7483 39.4917C53.9514 39.3831 54.1143 39.2201 54.2371 39.0028C54.3647 38.7856 54.4284 38.5211 54.4284 38.2093C54.4284 37.8976 54.367 37.633 54.2442 37.4158C54.1214 37.1985 53.9608 37.0379 53.7624 36.934C53.564 36.8253 53.3491 36.771 53.1177 36.771C52.8815 36.771 52.6642 36.8253 52.4658 36.934C52.2722 37.0379 52.1163 37.1985 51.9982 37.4158C51.8801 37.633 51.8211 37.8976 51.8211 38.2093C51.8211 38.5258 51.8778 38.7927 51.9911 39.0099C52.1092 39.2272 52.2651 39.3902 52.4587 39.4988C52.6524 39.6027 52.865 39.6547 53.0964 39.6547Z" fill="#A6B0CF"/>
    <path d="M61.1073 36.275L59.8957 40.1577H59.2297L58.2945 37.0757L57.3592 40.1577H56.6932L55.4746 36.275H56.1335L57.0262 39.5342L57.9898 36.275H58.6487L59.5911 39.5413L60.4696 36.275H61.1073Z" fill="#A6B0CF"/>
    <path d="M65.2898 38.0676C65.2898 38.1904 65.2827 38.3203 65.2685 38.4573H62.1652C62.1888 38.8399 62.3187 39.1398 62.5549 39.3571C62.7958 39.5697 63.0863 39.6759 63.4264 39.6759C63.7051 39.6759 63.9365 39.6122 64.1207 39.4846C64.3097 39.3524 64.4419 39.1776 64.5175 38.9603H65.2119C65.1079 39.3335 64.9001 39.6382 64.5884 39.8743C64.2766 40.1058 63.8893 40.2215 63.4264 40.2215C63.058 40.2215 62.7273 40.1388 62.4345 39.9735C62.1463 39.8082 61.9196 39.5744 61.7543 39.2721C61.589 38.9651 61.5063 38.6108 61.5063 38.2093C61.5063 37.8078 61.5866 37.4559 61.7472 37.1536C61.9078 36.8513 62.1322 36.6199 62.4203 36.4593C62.7131 36.2939 63.0485 36.2113 63.4264 36.2113C63.7948 36.2113 64.1207 36.2916 64.4041 36.4522C64.6876 36.6128 64.9048 36.8348 65.056 37.1182C65.2119 37.3969 65.2898 37.7133 65.2898 38.0676ZM64.6238 37.933C64.6238 37.6874 64.5695 37.4772 64.4608 37.3024C64.3522 37.1229 64.2034 36.9883 64.0145 36.8985C63.8302 36.8041 63.6248 36.7568 63.398 36.7568C63.0721 36.7568 62.7934 36.8607 62.562 37.0686C62.3353 37.2764 62.2054 37.5645 62.1723 37.933H64.6238Z" fill="#A6B0CF"/>
    <path d="M66.7856 36.9056C66.899 36.6836 67.0596 36.5112 67.2674 36.3884C67.48 36.2656 67.7374 36.2042 68.0397 36.2042V36.8702H67.8696C67.147 36.8702 66.7856 37.2622 66.7856 38.0463V40.1577H66.1409V36.275H66.7856V36.9056Z" fill="#A6B0CF"/>
    <path d="M72.3663 40.2215C72.0026 40.2215 71.6719 40.1388 71.3743 39.9735C71.0815 39.8082 70.85 39.5744 70.68 39.2721C70.5147 38.9651 70.432 38.6108 70.432 38.2093C70.432 37.8125 70.517 37.463 70.6871 37.1607C70.8618 36.8537 71.098 36.6199 71.3956 36.4593C71.6932 36.2939 72.0262 36.2113 72.3946 36.2113C72.763 36.2113 73.096 36.2939 73.3936 36.4593C73.6912 36.6199 73.925 36.8513 74.0951 37.1536C74.2698 37.4559 74.3572 37.8078 74.3572 38.2093C74.3572 38.6108 74.2675 38.9651 74.088 39.2721C73.9132 39.5744 73.6747 39.8082 73.3724 39.9735C73.0701 40.1388 72.7347 40.2215 72.3663 40.2215ZM72.3663 39.6547C72.5977 39.6547 72.815 39.6004 73.0181 39.4917C73.2212 39.3831 73.3842 39.2201 73.507 39.0028C73.6345 38.7856 73.6983 38.5211 73.6983 38.2093C73.6983 37.8976 73.6369 37.633 73.5141 37.4158C73.3913 37.1985 73.2307 37.0379 73.0323 36.934C72.8339 36.8253 72.619 36.771 72.3875 36.771C72.1513 36.771 71.9341 36.8253 71.7357 36.934C71.542 37.0379 71.3861 37.1985 71.2681 37.4158C71.15 37.633 71.0909 37.8976 71.0909 38.2093C71.0909 38.5258 71.1476 38.7927 71.261 39.0099C71.3791 39.2272 71.5349 39.3902 71.7286 39.4988C71.9223 39.6027 72.1348 39.6547 72.3663 39.6547Z" fill="#A6B0CF"/>
    <path d="M76.785 36.8064H75.9701V40.1577H75.3254V36.8064H74.8223V36.275H75.3254V35.9987C75.3254 35.5642 75.4364 35.2477 75.6584 35.0493C75.8851 34.8462 76.2465 34.7446 76.7424 34.7446V35.2831C76.459 35.2831 76.2583 35.3398 76.1402 35.4532C76.0268 35.5618 75.9701 35.7436 75.9701 35.9987V36.275H76.785V36.8064Z" fill="#A6B0CF"/>
    <path d="M79.1847 38.2093C79.1847 37.8078 79.265 37.4583 79.4256 37.1607C79.5862 36.8584 79.8082 36.6246 80.0916 36.4593C80.3798 36.2939 80.7081 36.2113 81.0765 36.2113C81.5536 36.2113 81.9456 36.327 82.2526 36.5584C82.5644 36.7899 82.7699 37.1111 82.8691 37.522H82.1747C82.1086 37.2859 81.9787 37.0993 81.785 36.9623C81.5961 36.8253 81.3599 36.7568 81.0765 36.7568C80.7081 36.7568 80.4105 36.8844 80.1838 37.1394C79.957 37.3898 79.8437 37.7464 79.8437 38.2093C79.8437 38.6769 79.957 39.0383 80.1838 39.2933C80.4105 39.5484 80.7081 39.6759 81.0765 39.6759C81.3599 39.6759 81.5961 39.6098 81.785 39.4776C81.974 39.3453 82.1038 39.1564 82.1747 38.9107H82.8691C82.7651 39.3075 82.5573 39.6263 82.2456 39.8672C81.9338 40.1034 81.5441 40.2215 81.0765 40.2215C80.7081 40.2215 80.3798 40.1388 80.0916 39.9735C79.8082 39.8082 79.5862 39.5744 79.4256 39.2721C79.265 38.9698 79.1847 38.6155 79.1847 38.2093Z" fill="#A6B0CF"/>
    <path d="M85.4227 40.2215C85.059 40.2215 84.7284 40.1388 84.4308 39.9735C84.1379 39.8082 83.9065 39.5744 83.7364 39.2721C83.5711 38.9651 83.4885 38.6108 83.4885 38.2093C83.4885 37.8125 83.5735 37.463 83.7435 37.1607C83.9183 36.8537 84.1545 36.6199 84.452 36.4593C84.7496 36.2939 85.0826 36.2113 85.4511 36.2113C85.8195 36.2113 86.1525 36.2939 86.4501 36.4593C86.7477 36.6199 86.9815 36.8513 87.1515 37.1536C87.3263 37.4559 87.4137 37.8078 87.4137 38.2093C87.4137 38.6108 87.3239 38.9651 87.1444 39.2721C86.9697 39.5744 86.7311 39.8082 86.4288 39.9735C86.1265 40.1388 85.7912 40.2215 85.4227 40.2215ZM85.4227 39.6547C85.6542 39.6547 85.8714 39.6004 86.0746 39.4917C86.2777 39.3831 86.4406 39.2201 86.5634 39.0028C86.691 38.7856 86.7547 38.5211 86.7547 38.2093C86.7547 37.8976 86.6933 37.633 86.5705 37.4158C86.4477 37.1985 86.2871 37.0379 86.0887 36.934C85.8903 36.8253 85.6754 36.771 85.444 36.771C85.2078 36.771 84.9905 36.8253 84.7921 36.934C84.5985 37.0379 84.4426 37.1985 84.3245 37.4158C84.2064 37.633 84.1474 37.8976 84.1474 38.2093C84.1474 38.5258 84.2041 38.7927 84.3174 39.0099C84.4355 39.2272 84.5914 39.3902 84.785 39.4988C84.9787 39.6027 85.1913 39.6547 85.4227 39.6547Z" fill="#A6B0CF"/>
    <path d="M92.9306 36.2042C93.2329 36.2042 93.5021 36.268 93.7383 36.3955C93.9744 36.5183 94.161 36.7049 94.298 36.9552C94.435 37.2056 94.5035 37.5102 94.5035 37.8692V40.1577H93.8658V37.9613C93.8658 37.574 93.769 37.2788 93.5753 37.0757C93.3864 36.8678 93.1289 36.7639 92.803 36.7639C92.4677 36.7639 92.2008 36.8726 92.0024 37.0898C91.804 37.3024 91.7048 37.6118 91.7048 38.018V40.1577H91.0671V37.9613C91.0671 37.574 90.9703 37.2788 90.7767 37.0757C90.5877 36.8678 90.3303 36.7639 90.0044 36.7639C89.669 36.7639 89.4021 36.8726 89.2037 37.0898C89.0053 37.3024 88.9062 37.6118 88.9062 38.018V40.1577H88.2614V36.275H88.9062V36.8348C89.0337 36.6317 89.2037 36.4758 89.4163 36.3671C89.6336 36.2585 89.8721 36.2042 90.1319 36.2042C90.4578 36.2042 90.746 36.2774 90.9963 36.4238C91.2466 36.5703 91.4332 36.7852 91.556 37.0686C91.6647 36.7946 91.8442 36.5821 92.0945 36.4309C92.3448 36.2798 92.6235 36.2042 92.9306 36.2042Z" fill="#A6B0CF"/>
    <path d="M100.23 36.2042C100.533 36.2042 100.802 36.268 101.038 36.3955C101.274 36.5183 101.461 36.7049 101.598 36.9552C101.735 37.2056 101.803 37.5102 101.803 37.8692V40.1577H101.166V37.9613C101.166 37.574 101.069 37.2788 100.875 37.0757C100.686 36.8678 100.429 36.7639 100.103 36.7639C99.7674 36.7639 99.5005 36.8726 99.3021 37.0898C99.1037 37.3024 99.0045 37.6118 99.0045 38.018V40.1577H98.3669V37.9613C98.3669 37.574 98.27 37.2788 98.0764 37.0757C97.8874 36.8678 97.63 36.7639 97.3041 36.7639C96.9687 36.7639 96.7018 36.8726 96.5034 37.0898C96.3051 37.3024 96.2059 37.6118 96.2059 38.018V40.1577H95.5611V36.275H96.2059V36.8348C96.3334 36.6317 96.5034 36.4758 96.716 36.3671C96.9333 36.2585 97.1718 36.2042 97.4316 36.2042C97.7575 36.2042 98.0457 36.2774 98.296 36.4238C98.5463 36.5703 98.7329 36.7852 98.8557 37.0686C98.9644 36.7946 99.1439 36.5821 99.3942 36.4309C99.6446 36.2798 99.9232 36.2042 100.23 36.2042Z" fill="#A6B0CF"/>
    <path d="M106.304 36.275V40.1577H105.659V39.5838C105.537 39.7822 105.364 39.9381 105.142 40.0515C104.925 40.1601 104.684 40.2144 104.42 40.2144C104.117 40.2144 103.846 40.153 103.605 40.0302C103.364 39.9027 103.173 39.7137 103.031 39.4634C102.894 39.213 102.825 38.9084 102.825 38.5494V36.275H103.463V38.4644C103.463 38.847 103.56 39.1422 103.754 39.35C103.947 39.5531 104.212 39.6547 104.547 39.6547C104.892 39.6547 105.164 39.5484 105.362 39.3359C105.56 39.1233 105.659 38.8139 105.659 38.4077V36.275H106.304Z" fill="#A6B0CF"/>
    <path d="M109.285 36.2042C109.757 36.2042 110.14 36.3483 110.432 36.6364C110.725 36.9198 110.872 37.3307 110.872 37.8692V40.1577H110.234V37.9613C110.234 37.574 110.137 37.2788 109.944 37.0757C109.75 36.8678 109.485 36.7639 109.15 36.7639C108.81 36.7639 108.538 36.8702 108.335 37.0828C108.137 37.2953 108.038 37.6047 108.038 38.0109V40.1577H107.393V36.275H108.038V36.8277C108.165 36.6293 108.338 36.4758 108.555 36.3671C108.777 36.2585 109.02 36.2042 109.285 36.2042Z" fill="#A6B0CF"/>
    <path d="M112.258 35.6445C112.135 35.6445 112.031 35.6019 111.946 35.5169C111.861 35.4319 111.819 35.328 111.819 35.2052C111.819 35.0824 111.861 34.9784 111.946 34.8934C112.031 34.8084 112.135 34.7659 112.258 34.7659C112.376 34.7659 112.475 34.8084 112.555 34.8934C112.641 34.9784 112.683 35.0824 112.683 35.2052C112.683 35.328 112.641 35.4319 112.555 35.5169C112.475 35.6019 112.376 35.6445 112.258 35.6445ZM112.57 36.275V40.1577H111.925V36.275H112.57Z" fill="#A6B0CF"/>
    <path d="M114.455 36.8064V39.095C114.455 39.2839 114.495 39.4185 114.575 39.4988C114.656 39.5744 114.795 39.6122 114.993 39.6122H115.468V40.1577H114.887C114.528 40.1577 114.259 40.0751 114.079 39.9098C113.9 39.7444 113.81 39.4728 113.81 39.095V36.8064H113.307V36.275H113.81V35.2973H114.455V36.275H115.468V36.8064H114.455Z" fill="#A6B0CF"/>
    <path d="M119.594 36.275L117.255 41.9857H116.589L117.355 40.1152L115.789 36.275H116.504L117.723 39.4209L118.928 36.275H119.594Z" fill="#A6B0CF"/>
    <path d="M6.46172 2.30506V30.2681H0V2.30506H6.46172Z" fill="white"/>
    <path d="M33.9199 19.7253C33.9199 17.5336 34.3607 15.619 35.2425 13.9815C36.1494 12.344 37.3964 11.0844 38.9835 10.2027C40.5957 9.321 42.4347 8.88014 44.5005 8.88014C47.1456 8.88014 49.3499 9.57292 51.1134 10.9585C52.902 12.344 54.0734 14.2964 54.6276 16.8156H47.7502C47.1708 15.2033 46.0498 14.3972 44.3871 14.3972C43.2031 14.3972 42.2584 14.8632 41.553 15.7953C40.8477 16.7022 40.495 18.0122 40.495 19.7253C40.495 21.4383 40.8477 22.7609 41.553 23.693C42.2584 24.5999 43.2031 25.0533 44.3871 25.0533C46.0498 25.0533 47.1708 24.2472 47.7502 22.6349H54.6276C54.0734 25.1037 52.902 27.0435 51.1134 28.4542C49.3247 29.865 47.1204 30.5704 44.5005 30.5704C42.4347 30.5704 40.5957 30.1295 38.9835 29.2478C37.3964 28.3661 36.1494 27.1065 35.2425 25.469C34.3607 23.8315 33.9199 21.9169 33.9199 19.7253Z" fill="white"/>
    <path d="M56.7992 19.6875C56.7992 17.521 57.2023 15.619 58.0085 13.9815C58.8398 12.344 59.9608 11.0844 61.3716 10.2027C62.7823 9.321 64.3568 8.88014 66.095 8.88014C67.5814 8.88014 68.8788 9.18244 69.9872 9.78705C71.1208 10.3917 71.99 11.1852 72.5946 12.1677V9.18244H79.0563V30.2681H72.5946V27.2828C71.9648 28.2653 71.083 29.0588 69.9494 29.6635C68.841 30.2681 67.5436 30.5704 66.0573 30.5704C64.3442 30.5704 62.7823 30.1295 61.3716 29.2478C59.9608 28.3409 58.8398 27.0687 58.0085 25.4312C57.2023 23.7685 56.7992 21.854 56.7992 19.6875ZM72.5946 19.7253C72.5946 18.113 72.1411 16.8408 71.2342 15.9087C70.3525 14.9766 69.2692 14.5105 67.9844 14.5105C66.6997 14.5105 65.6038 14.9766 64.6969 15.9087C63.8152 16.8156 63.3743 18.0752 63.3743 19.6875C63.3743 21.2997 63.8152 22.5845 64.6969 23.5418C65.6038 24.4739 66.6997 24.94 67.9844 24.94C69.2692 24.94 70.3525 24.4739 71.2342 23.5418C72.1411 22.6097 72.5946 21.3375 72.5946 19.7253Z" fill="white"/>
    <path d="M90.1928 2.30506V30.2681H83.731V2.30506H90.1928Z" fill="white"/>
    <path d="M98.1253 6.99075C96.9916 6.99075 96.0595 6.66326 95.329 6.00827C94.6236 5.32809 94.2709 4.49675 94.2709 3.51427C94.2709 2.50659 94.6236 1.67526 95.329 1.02027C96.0595 0.340091 96.9916 0 98.1253 0C99.2337 0 100.141 0.340091 100.846 1.02027C101.577 1.67526 101.942 2.50659 101.942 3.51427C101.942 4.49675 101.577 5.32809 100.846 6.00827C100.141 6.66326 99.2337 6.99075 98.1253 6.99075ZM101.337 9.18244V30.2681H94.8755V9.18244H101.337Z" fill="white"/>
    <path d="M117.772 24.7888V30.2681H114.484C112.142 30.2681 110.315 29.7012 109.005 28.5676C107.695 27.4088 107.04 25.532 107.04 22.9372V14.5483H104.471V9.18244H107.04V4.0433H113.502V9.18244H117.734V14.5483H113.502V23.0128C113.502 23.6426 113.653 24.096 113.955 24.3732C114.258 24.6503 114.762 24.7888 115.467 24.7888H117.772Z" fill="white"/>
    <path d="M142.91 9.18244L129.685 40.2818H122.732L127.568 29.5501L118.991 9.18244H126.208L131.083 22.3704L135.92 9.18244H142.91Z" fill="white"/>
    <path fill-rule="evenodd" clip-rule="evenodd" d="M15.0121 31.6063C17.1297 34.4256 19.3967 36.4747 20.7428 36.4747C22.131 36.4747 24.4154 34.4524 26.5467 31.6601C24.9353 31.9928 22.9943 32.187 20.9055 32.187C18.7064 32.187 16.6714 31.9717 15.0121 31.6063ZM13.5327 29.4681C11.4793 26.2456 9.85986 22.5259 9.85986 19.7252C9.85986 17.5587 10.3385 15.6567 11.2958 14.0193C12.2531 12.3566 13.5631 11.0844 15.2257 10.2027C16.8884 9.32099 18.7526 8.88013 20.8183 8.88013C22.8841 8.88013 24.7483 9.32099 26.4109 10.2027C28.0736 11.0844 29.3836 12.3566 30.3409 14.0193C31.2982 15.6567 31.7768 17.5587 31.7768 19.7252C31.7768 22.589 30.0872 26.3978 27.9584 29.6597C26.2543 30.3043 23.7592 30.7109 20.9793 30.7109C17.933 30.7109 15.2289 30.2226 13.5327 29.4681ZM25.2017 19.7252C25.2017 22.3764 23.6468 24.9777 20.7428 24.9777C17.8125 24.9777 16.4349 22.3551 16.4349 19.7252C16.4349 18.0122 16.8506 16.7148 17.6819 15.8331C18.5133 14.9262 19.5587 14.4727 20.8183 14.4727C22.0527 14.4727 23.0856 14.9262 23.9169 15.8331C24.7735 16.74 25.2017 18.0374 25.2017 19.7252Z" fill="white"/>
    <path fill-rule="evenodd" clip-rule="evenodd" d="M20.906 32.0394C26.4903 32.0394 31.0172 30.6516 31.0172 28.9396C31.0172 28.6992 30.9279 28.4651 30.759 28.2404C31.3985 28.7002 31.7553 29.2121 31.7553 29.7515C31.7553 31.7488 26.8649 33.3679 20.8322 33.3679C14.7996 33.3679 9.90918 31.7488 9.90918 29.7515C9.90918 29.1198 10.3985 28.5258 11.2584 28.009C10.9572 28.3028 10.7948 28.6154 10.7948 28.9396C10.7948 30.6516 15.3218 32.0394 20.906 32.0394Z" fill="#1F67F9"/>
  </symbol>
  <symbol id="logo-min" viewBox="0 0 23 29" fill="none">
    <path fill-rule="evenodd" clip-rule="evenodd" d="M6.01212 23.6063C8.12966 26.4257 10.3967 28.4747 11.7428 28.4747C13.131 28.4747 15.4154 26.4524 17.5467 23.6601C15.9353 23.9928 13.9943 24.187 11.9055 24.187C9.70644 24.187 7.67136 23.9718 6.01212 23.6063ZM4.53268 21.4681C2.47924 18.2456 0.859863 14.5259 0.859863 11.7252C0.859863 9.55873 1.33851 7.65675 2.2958 6.01927C3.25309 4.35661 4.56307 3.08442 6.22574 2.2027C7.8884 1.32099 9.7526 0.880127 11.8183 0.880127C13.8841 0.880127 15.7483 1.32099 17.4109 2.2027C19.0736 3.08442 20.3836 4.35661 21.3409 6.01927C22.2982 7.65675 22.7768 9.55873 22.7768 11.7252C22.7768 14.589 21.0872 18.3978 18.9584 21.6597C17.2543 22.3043 14.7592 22.7109 11.9793 22.7109C8.93304 22.7109 6.22886 22.2226 4.53268 21.4681ZM16.2017 11.7252C16.2017 14.3764 14.6468 16.9777 11.7428 16.9777C8.81252 16.9777 7.43495 14.3551 7.43495 11.7252C7.43495 10.0122 7.85061 8.71481 8.68195 7.83309C9.51328 6.92618 10.5587 6.47273 11.8183 6.47273C13.0527 6.47273 14.0856 6.92618 14.9169 7.83309C15.7735 8.74 16.2017 10.0374 16.2017 11.7252Z" fill="white"/>
    <path fill-rule="evenodd" clip-rule="evenodd" d="M11.9061 24.0394C17.4903 24.0394 22.0173 22.6516 22.0173 20.9396C22.0173 20.6992 21.928 20.4652 21.759 20.2405C22.3986 20.7003 22.7553 21.2121 22.7553 21.7515C22.7553 23.7488 17.8649 25.3679 11.8322 25.3679C5.79959 25.3679 0.90918 23.7488 0.90918 21.7515C0.90918 21.1197 1.3985 20.5258 2.25851 20.009C1.95727 20.3027 1.79486 20.6154 1.79486 20.9396C1.79486 22.6516 6.3218 24.0394 11.9061 24.0394Z" fill="#1F67F9"/>
  </symbol>
  <symbol id="bag" viewBox="0 0 24 24" fill="var(--icon-color-1)">
    <path d="M20 6H17V4C17 2.89 16.11 2 15 2H9C7.89 2 7 2.89 7 4V6H4C2.89 6 2 6.89 2 8V19C2 20.11 2.89 21 4 21H20C21.11 21 22 20.11 22 19V8C22 6.89 21.11 6 20 6ZM9 4H15V6H9V4ZM20 19H4V17H20V19ZM20 14H4V8H7V10H9V8H15V10H17V8H20V14Z" />
  </symbol>
  <symbol id="location" viewBox="0 0 25 24" fill="var(--icon-color-1)">
    <path d="M12.5898 12C11.4898 12 10.5898 11.1 10.5898 10C10.5898 8.9 11.4898 8 12.5898 8C13.6898 8 14.5898 8.9 14.5898 10C14.5898 11.1 13.6898 12 12.5898 12ZM18.5898 10.2C18.5898 6.57 15.9398 4 12.5898 4C9.23984 4 6.58984 6.57 6.58984 10.2C6.58984 12.54 8.53984 15.64 12.5898 19.34C16.6398 15.64 18.5898 12.54 18.5898 10.2ZM12.5898 2C16.7898 2 20.5898 5.22 20.5898 10.2C20.5898 13.52 17.9198 17.45 12.5898 22C7.25984 17.45 4.58984 13.52 4.58984 10.2C4.58984 5.22 8.38984 2 12.5898 2Z" />
  </symbol>
  <symbol id="calendar" viewBox="0 0 21 20" fill="var(--icon-color-1)">
    <path d="M16.4232 2.50004H15.5898V0.833374H13.9232V2.50004H7.25651V0.833374H5.58984V2.50004H4.75651C3.83151 2.50004 3.09818 3.25004 3.09818 4.16671L3.08984 15.8334C3.08984 16.75 3.83151 17.5 4.75651 17.5H16.4232C17.3398 17.5 18.0898 16.75 18.0898 15.8334V4.16671C18.0898 3.25004 17.3398 2.50004 16.4232 2.50004ZM16.4232 15.8334H4.75651V7.50004H16.4232V15.8334ZM16.4232 5.83337H4.75651V4.16671H16.4232V5.83337ZM14.7565 10H10.5898V14.1667H14.7565V10Z" />
  </symbol>
  <symbol id="eye" viewBox="0 0 25 24" stroke="var(--icon-color-1)" fill="none">
    <path d="M12.5898 18.75C8.01436 18.75 4.08871 15.9683 2.40027 12C4.08871 8.03169 8.01436 5.25 12.5898 5.25C17.1653 5.25 21.091 8.03169 22.7794 12C21.091 15.9683 17.1653 18.75 12.5898 18.75ZM12.5898 8.25C10.5156 8.25 8.83984 9.92579 8.83984 12C8.83984 14.0742 10.5156 15.75 12.5898 15.75C14.6641 15.75 16.3398 14.0742 16.3398 12C16.3398 9.92579 14.6641 8.25 12.5898 8.25ZM10.3398 12C10.3398 10.7542 11.3441 9.75 12.5898 9.75C13.8356 9.75 14.8398 10.7542 14.8398 12C14.8398 13.2458 13.8356 14.25 12.5898 14.25C11.3441 14.25 10.3398 13.2458 10.3398 12Z" stroke-width="1.5"/>
  </symbol>
  <symbol id="image" viewBox="0 0 24 24" fill="var(--icon-color-1)">
    <path d="M19 5V19H5V5H19ZM19 3H5C3.9 3 3 3.9 3 5V19C3 20.1 3.9 21 5 21H19C20.1 21 21 20.1 21 19V5C21 3.9 20.1 3 19 3ZM14.14 11.86L11.14 15.73L9 13.14L6 17H18L14.14 11.86Z" />
  </symbol>
  <symbol id="pdf" viewBox="0 0 24 24" fill="var(--icon-color-1)">
    <path d="M20 2H8C6.9 2 6 2.9 6 4V16C6 17.1 6.9 18 8 18H20C21.1 18 22 17.1 22 16V4C22 2.9 21.1 2 20 2ZM20 16H8V4H20V16ZM4 6H2V20C2 21.1 2.9 22 4 22H18V20H4V6ZM16 12V9C16 8.45 15.55 8 15 8H13V13H15C15.55 13 16 12.55 16 12ZM14 9H15V12H14V9ZM18 11H19V10H18V9H19V8H17V13H18V11ZM10 11H11C11.55 11 12 10.55 12 10V9C12 8.45 11.55 8 11 8H9V13H10V11ZM10 9H11V10H10V9Z" />
  </symbol>
  <symbol id="document" viewBox="0 0 24 24" fill="var(--icon-color-1)">
    <path d="M14.17 5L19 9.83V19H5V5H14.17ZM14.17 3H5C3.9 3 3 3.9 3 5V19C3 20.1 3.9 21 5 21H19C20.1 21 21 20.1 21 19V9.83C21 9.3 20.79 8.79 20.41 8.42L15.58 3.59C15.21 3.21 14.7 3 14.17 3ZM7 15H17V17H7V15ZM7 11H17V13H7V11ZM7 7H14V9H7V7Z" />
  </symbol>
  <symbol id="archive" viewBox="0 0 24 24" fill="var(--icon-color-1)">
    <path d="M20.54 5.23L19.15 3.55C18.88 3.21 18.47 3 18 3H6C5.53 3 5.12 3.21 4.84 3.55L3.46 5.23C3.17 5.57 3 6.02 3 6.5V19C3 20.1 3.9 21 5 21H19C20.1 21 21 20.1 21 19V6.5C21 6.02 20.83 5.57 20.54 5.23ZM6.24 5H17.76L18.57 5.97H5.44L6.24 5ZM5 19V8H19V19H5ZM13.45 10H10.55V13H8L12 17L16 13H13.45V10Z" />
  </symbol>
  <symbol id="mark-done" viewBox="0 0 20 20" fill="none">
    <path d="M18.5333 4.6582L9.71668 13.4749L6.23335 9.99987L5.05835 11.1749L9.71668 15.8332L19.7167 5.8332L18.5333 4.6582Z" fill="var(--icon-color-1)"/>
    <path d="M15.0001 5.8332L13.8251 4.6582L8.5418 9.94154L9.7168 11.1165L15.0001 5.8332ZM0.341797 11.1749L5.00013 15.8332L6.17513 14.6582L1.52513 9.99987L0.341797 11.1749Z" fill="var(--icon-color-2, var(--icon-color-1))"/>
  </symbol>
  <symbol id="check-mark" viewBox="0 0 15 15" fill="var(--icon-color-1)">
    <path d="M5.1791 10.9104L2.04478 7.77612L1 8.8209L5.1791 13L14.1343 4.04478L13.0896 3L5.1791 10.9104Z" />
  </symbol>
  <symbol id="copy" viewBox="0 0 20 21" fill="var(--icon-color-1)">
    <path d="M13.3334 1.33325H3.33341C2.41675 1.33325 1.66675 2.08325 1.66675 2.99992V14.6666H3.33341V2.99992H13.3334V1.33325ZM15.8334 4.66658H6.66675C5.75008 4.66658 5.00008 5.41658 5.00008 6.33325V17.9999C5.00008 18.9166 5.75008 19.6666 6.66675 19.6666H15.8334C16.7501 19.6666 17.5001 18.9166 17.5001 17.9999V6.33325C17.5001 5.41658 16.7501 4.66658 15.8334 4.66658ZM15.8334 17.9999H6.66675V6.33325H15.8334V17.9999Z" />
  </symbol>
  <symbol id="sharp" viewBox="0 0 24 24" fill="var(--icon-color-1)">
    <path fill-rule="evenodd" clip-rule="evenodd" d="M15.1251 5L14.5138 8.58151H10.6513L11.2082 5.31665L9.68067 5L9.06933 8.58151H5.77778V10.2931H8.77767L8.19356 13.7163H5V15.4279H7.90189L7.34656 18.6842L8.87489 19L9.48467 15.4279H13.3471L12.7918 18.6842L14.3201 19L14.9291 15.4279H18.2222V13.7163H15.2208L15.8049 10.2931H19V8.58151H16.0966L16.6534 5.31665L15.1251 5ZM13.638 13.7163H9.77633L10.3604 10.2931H14.2229L13.638 13.7163Z" />
  </symbol>
  <symbol id="heart" viewBox="0 0 24 24" fill="var(--icon-color-1)">
    <path d="M16.5 3C14.76 3 13.09 3.81 12 5.09C10.91 3.81 9.24 3 7.5 3C4.42 3 2 5.42 2 8.5C2 12.28 5.4 15.36 10.55 20.04L12 21.35L13.45 20.03C18.6 15.36 22 12.28 22 8.5C22 5.42 19.58 3 16.5 3ZM12.1 18.55L12 18.65L11.9 18.55C7.14 14.24 4 11.39 4 8.5C4 6.5 5.5 5 7.5 5C9.04 5 10.54 5.99 11.07 7.36H12.94C13.46 5.99 14.96 5 16.5 5C18.5 5 20 6.5 20 8.5C20 11.39 16.86 14.24 12.1 18.55Z" />
  </symbol>
  <symbol id="message" viewBox="0 0 24 24" fill="var(--icon-color-1)">
    <path d="M20 2H4C2.9 2 2 2.9 2 4V22L6 18H20C21.1 18 22 17.1 22 16V4C22 2.9 21.1 2 20 2ZM20 16H6L4 18V4H20V16ZM7 9H9V11H7V9ZM11 9H13V11H11V9ZM15 9H17V11H15V9Z" />
  </symbol>
  <symbol id="nav-dashboard" viewBox="0 0 24 24" fill="var(--icon-color-1)">
    <path fill-rule="evenodd" clip-rule="evenodd" d="M6.51429 5C5.12568 5 4 6.12568 4 7.51429C4 8.90289 5.12568 10.0286 6.51429 10.0286C7.90289 10.0286 9.02857 8.90289 9.02857 7.51429C9.02857 6.12568 7.90289 5 6.51429 5ZM5.37143 7.51429C5.37143 6.8831 5.8831 6.37143 6.51429 6.37143C7.14547 6.37143 7.65714 6.8831 7.65714 7.51429C7.65714 8.14547 7.14547 8.65714 6.51429 8.65714C5.8831 8.65714 5.37143 8.14547 5.37143 7.51429Z" />
    <path d="M12 6.82857C11.6213 6.82857 11.3143 7.13558 11.3143 7.51429C11.3143 7.893 11.6213 8.2 12 8.2L19.3143 8.2C19.693 8.2 20 7.893 20 7.51429C20 7.13558 19.693 6.82857 19.3143 6.82857L12 6.82857Z" />
    <path fill-rule="evenodd" clip-rule="evenodd" d="M17.4857 14.1429C16.0971 14.1429 14.9714 15.2685 14.9714 16.6571C14.9714 18.0457 16.0971 19.1714 17.4857 19.1714C18.8743 19.1714 20 18.0457 20 16.6571C20 15.2685 18.8743 14.1429 17.4857 14.1429ZM16.3429 16.6571C16.3429 16.026 16.8545 15.5143 17.4857 15.5143C18.1169 15.5143 18.6286 16.026 18.6286 16.6571C18.6286 17.2883 18.1169 17.8 17.4857 17.8C16.8545 17.8 16.3429 17.2883 16.3429 16.6571Z" />
    <path d="M4.68571 15.9714C4.307 15.9714 4 16.2784 4 16.6571C4 17.0359 4.307 17.3429 4.68571 17.3429L12 17.3429C12.3787 17.3429 12.6857 17.0359 12.6857 16.6571C12.6857 16.2784 12.3787 15.9714 12 15.9714L4.68571 15.9714Z" />
  </symbol>
  <symbol id="nav-users" viewBox="0 0 24 24" fill="none">
    <path d="M13.4979 10.3887C13.6556 10.1353 13.9516 10 14.2501 10C15.4927 10 16.5001 8.99264 16.5001 7.75C16.5001 6.50736 15.4927 5.5 14.2501 5.5C13.9516 5.5 13.6556 5.36473 13.4979 5.11135C13.4909 5.10014 13.4839 5.08896 13.4769 5.07782C13.2143 4.66331 13.3473 4.0764 13.8351 4.0227C13.9713 4.0077 14.1098 4 14.2501 4C16.3211 4 18.0001 5.67893 18.0001 7.75C18.0001 9.82107 16.3211 11.5 14.2501 11.5C14.1098 11.5 13.9713 11.4923 13.8351 11.4773C13.3473 11.4236 13.2143 10.8367 13.4769 10.4222C13.4839 10.411 13.4909 10.3999 13.4979 10.3887Z" fill="var(--icon-color-2)"/>
    <path d="M16.5418 18.3169C16.6553 18.1275 16.8557 18 17.0765 18H17.2501C18.4927 18 19.5001 16.9926 19.5001 15.75C19.5001 14.5074 18.4927 13.5 17.2501 13.5H17.0765C16.8557 13.5 16.6553 13.3725 16.5418 13.1831C16.2647 12.7208 16.5654 12 17.1044 12H17.2501C19.3211 12 21.0001 13.6789 21.0001 15.75C21.0001 17.8211 19.3211 19.5 17.2501 19.5H17.1044C16.5654 19.5 16.2647 18.7792 16.5418 18.3169Z" fill="var(--icon-color-2)"/>
    <path fill-rule="evenodd" clip-rule="evenodd" d="M9.25 4C11.3211 4 13 5.67893 13 7.75C13 9.82107 11.3211 11.5 9.25 11.5C7.17893 11.5 5.5 9.82107 5.5 7.75C5.5 5.67893 7.17893 4 9.25 4ZM11.5 7.75C11.5 6.50736 10.4926 5.5 9.25 5.5C8.00736 5.5 7 6.50736 7 7.75C7 8.99264 8.00736 10 9.25 10C10.4926 10 11.5 8.99264 11.5 7.75Z" fill="var(--icon-color-1)"/>
    <path fill-rule="evenodd" clip-rule="evenodd" d="M12.25 13C14.3211 13 16 14.6789 16 16.75C16 18.8211 14.3211 20.5 12.25 20.5H6.25C4.17893 20.5 2.5 18.8211 2.5 16.75C2.5 14.6789 4.17893 13 6.25 13H12.25ZM14.5 16.75C14.5 15.5074 13.4926 14.5 12.25 14.5H6.25C5.00736 14.5 4 15.5074 4 16.75C4 17.9926 5.00736 19 6.25 19H12.25C13.4926 19 14.5 17.9926 14.5 16.75Z" fill="var(--icon-color-1)"/>
  </symbol>
  <symbol id="nav-categories" viewBox="0 0 24 24" fill="none">
    <path fill-rule="evenodd" clip-rule="evenodd" d="M8.47576 4.01899C8.19726 3.99999 7.85803 3.99999 7.45167 4H7.40549C6.99913 3.99999 6.65988 3.99999 6.38138 4.01899C6.09146 4.03877 5.81761 4.08142 5.55211 4.19139C4.93604 4.44657 4.44657 4.93604 4.19139 5.55211C4.08142 5.81761 4.03877 6.09146 4.01899 6.38138C3.99999 6.65988 3.99999 6.99911 4 7.40547V7.45166C3.99999 7.85802 3.99999 8.19726 4.01899 8.47576C4.03877 8.76568 4.08142 9.03954 4.19139 9.30503C4.44657 9.9211 4.93604 10.4106 5.55211 10.6658C5.81761 10.7757 6.09146 10.8184 6.38138 10.8382C6.65988 10.8572 6.99912 10.8572 7.40548 10.8571H7.45166C7.85803 10.8572 8.19726 10.8572 8.47576 10.8382C8.76568 10.8184 9.03954 10.7757 9.30503 10.6658C9.9211 10.4106 10.4106 9.9211 10.6658 9.30503C10.7757 9.03954 10.8184 8.76568 10.8382 8.47576C10.8572 8.19726 10.8572 7.85803 10.8571 7.45166V7.40548C10.8572 6.99912 10.8572 6.65988 10.8382 6.38138C10.8184 6.09146 10.7757 5.81761 10.6658 5.55211C10.4106 4.93604 9.9211 4.44657 9.30503 4.19139C9.03954 4.08142 8.76568 4.03877 8.47576 4.01899ZM6.07693 5.45842C6.14747 5.42921 6.25464 5.40225 6.47474 5.38724C6.70099 5.3718 6.99319 5.37143 7.42857 5.37143C7.86396 5.37143 8.15616 5.3718 8.38241 5.38724C8.6025 5.40225 8.70967 5.42921 8.78021 5.45842C9.06024 5.57442 9.28273 5.7969 9.39872 6.07693C9.42794 6.14747 9.45489 6.25464 9.46991 6.47474C9.48534 6.70099 9.48572 6.99319 9.48572 7.42857C9.48572 7.86396 9.48534 8.15616 9.46991 8.38241C9.45489 8.6025 9.42794 8.70967 9.39872 8.78021C9.28273 9.06024 9.06024 9.28273 8.78021 9.39872C8.70967 9.42794 8.6025 9.45489 8.38241 9.46991C8.15616 9.48534 7.86396 9.48572 7.42857 9.48572C6.99319 9.48572 6.70099 9.48534 6.47474 9.46991C6.25464 9.45489 6.14747 9.42794 6.07693 9.39872C5.7969 9.28273 5.57442 9.06024 5.45842 8.78021C5.42921 8.70967 5.40225 8.6025 5.38724 8.38241C5.3718 8.15616 5.37143 7.86396 5.37143 7.42857C5.37143 6.99319 5.3718 6.70099 5.38724 6.47474C5.40225 6.25464 5.42921 6.14747 5.45842 6.07693C5.57442 5.7969 5.7969 5.57442 6.07693 5.45842Z" fill="var(--icon-color-1)"/>
    <path d="M17.2571 4.68572C17.2571 4.30701 16.9501 4 16.5714 4C16.1927 4 15.8857 4.30701 15.8857 4.68572V6.74286H13.8286C13.4499 6.74286 13.1429 7.04986 13.1429 7.42857C13.1429 7.80728 13.4499 8.11429 13.8286 8.11429H15.8857V10.1714C15.8857 10.5501 16.1927 10.8571 16.5714 10.8571C16.9501 10.8571 17.2571 10.5501 17.2571 10.1714V8.11429H19.3143C19.693 8.11429 20 7.80728 20 7.42857C20 7.04986 19.693 6.74286 19.3143 6.74286H17.2571V4.68572Z" fill="var(--icon-color-1)"/>
    <path fill-rule="evenodd" clip-rule="evenodd" d="M8.47576 13.1618C8.19726 13.1428 7.85803 13.1429 7.45166 13.1429H7.40548C6.99912 13.1429 6.65988 13.1428 6.38138 13.1618C6.09146 13.1816 5.81761 13.2243 5.55211 13.3342C4.93604 13.5894 4.44657 14.0789 4.19139 14.695C4.08142 14.9605 4.03877 15.2343 4.01899 15.5242C3.99999 15.8027 3.99999 16.142 4 16.5483V16.5945C3.99999 17.0009 3.99999 17.3401 4.01899 17.6186C4.03877 17.9085 4.08142 18.1824 4.19139 18.4479C4.44657 19.064 4.93604 19.5534 5.55211 19.8086C5.81761 19.9186 6.09146 19.9612 6.38138 19.981C6.65988 20 6.99912 20 7.40548 20H7.45167C7.85803 20 8.19726 20 8.47576 19.981C8.76568 19.9612 9.03954 19.9186 9.30503 19.8086C9.9211 19.5534 10.4106 19.064 10.6658 18.4479C10.7757 18.1824 10.8184 17.9085 10.8382 17.6186C10.8572 17.3401 10.8572 17.0009 10.8571 16.5945V16.5483C10.8572 16.142 10.8572 15.8027 10.8382 15.5242C10.8184 15.2343 10.7757 14.9605 10.6658 14.695C10.4106 14.0789 9.9211 13.5894 9.30503 13.3342C9.03954 13.2243 8.76568 13.1816 8.47576 13.1618ZM6.07693 14.6013C6.14747 14.5721 6.25464 14.5451 6.47474 14.5301C6.70099 14.5147 6.99319 14.5143 7.42857 14.5143C7.86396 14.5143 8.15616 14.5147 8.38241 14.5301C8.6025 14.5451 8.70967 14.5721 8.78021 14.6013C9.06024 14.7173 9.28273 14.9398 9.39872 15.2198C9.42794 15.2903 9.45489 15.3975 9.46991 15.6176C9.48534 15.8438 9.48572 16.136 9.48572 16.5714C9.48572 17.0068 9.48534 17.299 9.46991 17.5253C9.45489 17.7454 9.42794 17.8525 9.39872 17.9231C9.28273 18.2031 9.06024 18.4256 8.78021 18.5416C8.70967 18.5708 8.6025 18.5977 8.38241 18.6128C8.15616 18.6282 7.86396 18.6286 7.42857 18.6286C6.99319 18.6286 6.70099 18.6282 6.47474 18.6128C6.25464 18.5977 6.14747 18.5708 6.07693 18.5416C5.7969 18.4256 5.57442 18.2031 5.45842 17.9231C5.42921 17.8525 5.40225 17.7454 5.38724 17.5253C5.3718 17.299 5.37143 17.0068 5.37143 16.5714C5.37143 16.136 5.3718 15.8438 5.38724 15.6176C5.40225 15.3975 5.42921 15.2903 5.45842 15.2198C5.57442 14.9398 5.7969 14.7173 6.07693 14.6013Z" fill="var(--icon-color-1)"/>
    <path fill-rule="evenodd" clip-rule="evenodd" d="M17.6186 13.1618C17.3401 13.1428 17.0009 13.1429 16.5945 13.1429H16.5483C16.142 13.1429 15.8027 13.1428 15.5242 13.1618C15.2343 13.1816 14.9605 13.2243 14.695 13.3342C14.0789 13.5894 13.5894 14.0789 13.3342 14.695C13.2243 14.9605 13.1816 15.2343 13.1618 15.5242C13.1428 15.8027 13.1429 16.142 13.1429 16.5483V16.5945C13.1429 17.0009 13.1428 17.3401 13.1618 17.6186C13.1816 17.9085 13.2243 18.1824 13.3342 18.4479C13.5894 19.064 14.0789 19.5534 14.695 19.8086C14.9605 19.9186 15.2343 19.9612 15.5242 19.981C15.8027 20 16.142 20 16.5483 20H16.5945C17.0009 20 17.3401 20 17.6186 19.981C17.9085 19.9612 18.1824 19.9186 18.4479 19.8086C19.064 19.5534 19.5534 19.064 19.8086 18.4479C19.9186 18.1824 19.9612 17.9085 19.981 17.6186C20 17.3401 20 17.0009 20 16.5945V16.5483C20 16.142 20 15.8027 19.981 15.5242C19.9612 15.2343 19.9186 14.9605 19.8086 14.695C19.5534 14.0789 19.064 13.5894 18.4479 13.3342C18.1824 13.2243 17.9085 13.1816 17.6186 13.1618ZM15.2198 14.6013C15.2903 14.5721 15.3975 14.5451 15.6176 14.5301C15.8438 14.5147 16.136 14.5143 16.5714 14.5143C17.0068 14.5143 17.299 14.5147 17.5253 14.5301C17.7454 14.5451 17.8525 14.5721 17.9231 14.6013C18.2031 14.7173 18.4256 14.9398 18.5416 15.2198C18.5708 15.2903 18.5977 15.3975 18.6128 15.6176C18.6282 15.8438 18.6286 16.136 18.6286 16.5714C18.6286 17.0068 18.6282 17.299 18.6128 17.5253C18.5977 17.7454 18.5708 17.8525 18.5416 17.9231C18.4256 18.2031 18.2031 18.4256 17.9231 18.5416C17.8525 18.5708 17.7454 18.5977 17.5253 18.6128C17.299 18.6282 17.0068 18.6286 16.5714 18.6286C16.136 18.6286 15.8438 18.6282 15.6176 18.6128C15.3975 18.5977 15.2903 18.5708 15.2198 18.5416C14.9398 18.4256 14.7173 18.2031 14.6013 17.9231C14.5721 17.8525 14.5451 17.7454 14.5301 17.5253C14.5147 17.299 14.5143 17.0068 14.5143 16.5714C14.5143 16.136 14.5147 15.8438 14.5301 15.6176C14.5451 15.3975 14.5721 15.2903 14.6013 15.2198C14.7173 14.9398 14.9398 14.7173 15.2198 14.6013Z" fill="var(--icon-color-1)"/>
    <path d="M17.2571 4.68571C17.2571 4.30701 16.9501 4 16.5714 4C16.1927 4 15.8857 4.30701 15.8857 4.68571V6.74286H13.8285C13.4498 6.74286 13.1428 7.04986 13.1428 7.42857C13.1428 7.80728 13.4498 8.11429 13.8285 8.11429H15.8857V10.1714C15.8857 10.5501 16.1927 10.8571 16.5714 10.8571C16.9501 10.8571 17.2571 10.5501 17.2571 10.1714V8.11429H19.3142C19.693 8.11429 20 7.80728 20 7.42857C20 7.04986 19.693 6.74286 19.3142 6.74286H17.2571V4.68571Z" fill="var(--icon-color-2)"/>
  </symbol>
  <symbol id="nav-posts" viewBox="0 0 24 24" fill="none">
    <path d="M4.78217 15.0616L4.8995 14.3208H4.8995L4.78217 15.0616ZM8.93844 19.2178L9.67921 19.1005V19.1005L8.93844 19.2178ZM5.06107 20.0451L4.62023 20.6518L5.06107 20.0451ZM3.95491 18.9389L4.56168 18.4981L3.95491 18.9389ZM20.0451 18.9389L19.4383 18.4981L20.0451 18.9389ZM18.9389 20.0451L18.4981 19.4383L18.9389 20.0451ZM18.9389 3.95491L18.4981 4.56168L18.9389 3.95491ZM20.0451 5.06107L19.4383 5.50191L20.0451 5.06107ZM5.06107 3.95491L5.50191 4.56168L5.06107 3.95491ZM3.95491 5.06107L4.56168 5.50191L3.95491 5.06107ZM3.02893 15L2.27937 15.0257L3.02893 15ZM9 20.9711L8.97432 21.7206L9 20.9711ZM13 11.25C12.5858 11.25 12.25 11.5858 12.25 12C12.25 12.4142 12.5858 12.75 13 12.75V11.25ZM16 12.75C16.4142 12.75 16.75 12.4142 16.75 12C16.75 11.5858 16.4142 11.25 16 11.25V12.75ZM8 7.25C7.58579 7.25 7.25 7.58579 7.25 8C7.25 8.41421 7.58579 8.75 8 8.75V7.25ZM16 8.75C16.4142 8.75 16.75 8.41421 16.75 8C16.75 7.58579 16.4142 7.25 16 7.25V8.75ZM4.66485 15.8023C6.48339 16.0904 7.90965 17.5166 8.19768 19.3352L9.67921 19.1005C9.28952 16.6401 7.35988 14.7105 4.8995 14.3208L4.66485 15.8023ZM5.50191 19.4383C5.14111 19.1762 4.82382 18.8589 4.56168 18.4981L3.34815 19.3798C3.70281 19.8679 4.13209 20.2972 4.62023 20.6518L5.50191 19.4383ZM20.25 12C20.25 13.8916 20.249 15.25 20.135 16.302C20.0225 17.3399 19.8074 17.9901 19.4383 18.4981L20.6518 19.3798C21.2377 18.5734 21.5 17.6291 21.6263 16.4635C21.751 15.312 21.75 13.8582 21.75 12H20.25ZM12 21.75C13.8582 21.75 15.312 21.751 16.4635 21.6263C17.6291 21.5 18.5734 21.2377 19.3798 20.6518L18.4981 19.4383C17.9901 19.8074 17.3399 20.0225 16.302 20.135C15.25 20.249 13.8916 20.25 12 20.25V21.75ZM19.4383 18.4981C19.1762 18.8589 18.8589 19.1762 18.4981 19.4383L19.3798 20.6518C19.8679 20.2972 20.2972 19.8679 20.6518 19.3798L19.4383 18.4981ZM12 3.75C13.8916 3.75 15.25 3.75103 16.302 3.865C17.3399 3.97745 17.9901 4.19259 18.4981 4.56168L19.3798 3.34815C18.5734 2.76232 17.6291 2.50001 16.4635 2.37373C15.312 2.24897 13.8582 2.25 12 2.25V3.75ZM21.75 12C21.75 10.1418 21.751 8.68798 21.6263 7.53648C21.5 6.37094 21.2377 5.42656 20.6518 4.62023L19.4383 5.50191C19.8074 6.00992 20.0225 6.66013 20.135 7.69804C20.249 8.74999 20.25 10.1084 20.25 12H21.75ZM18.4981 4.56168C18.8589 4.82382 19.1762 5.14111 19.4383 5.50191L20.6518 4.62023C20.2972 4.13209 19.8679 3.70281 19.3798 3.34815L18.4981 4.56168ZM12 2.25C10.1418 2.25 8.68798 2.24897 7.53648 2.37373C6.37094 2.50001 5.42656 2.76232 4.62023 3.34815L5.50191 4.56168C6.00992 4.19259 6.66013 3.97745 7.69804 3.865C8.74999 3.75103 10.1084 3.75 12 3.75V2.25ZM3.75 12C3.75 10.1084 3.75103 8.74999 3.865 7.69804C3.97745 6.66013 4.19259 6.00992 4.56168 5.50191L3.34815 4.62023C2.76232 5.42656 2.50001 6.37094 2.37373 7.53648C2.24897 8.68798 2.25 10.1418 2.25 12H3.75ZM4.62023 3.34815C4.13209 3.70281 3.70281 4.13209 3.34815 4.62023L4.56168 5.50191C4.82382 5.14111 5.14111 4.82382 5.50191 4.56168L4.62023 3.34815ZM2.25 12C2.25 13.1648 2.24991 14.1658 2.27937 15.0257L3.77849 14.9743C3.75009 14.1456 3.75 13.1731 3.75 12H2.25ZM2.27937 15.0257C2.34355 16.8991 2.5463 18.2761 3.34815 19.3798L4.56168 18.4981C4.04907 17.7925 3.84204 16.8292 3.77849 14.9743L2.27937 15.0257ZM3.02892 15.75C3.96618 15.75 4.35298 15.7529 4.66485 15.8023L4.8995 14.3208C4.44215 14.2484 3.91121 14.25 3.02893 14.25L3.02892 15.75ZM12 20.25C10.8269 20.25 9.85445 20.2499 9.02568 20.2215L8.97432 21.7206C9.83424 21.7501 10.8352 21.75 12 21.75V20.25ZM9.02568 20.2215C7.17075 20.158 6.20746 19.9509 5.50191 19.4383L4.62023 20.6518C5.7239 21.4537 7.10087 21.6564 8.97432 21.7206L9.02568 20.2215ZM9.75 20.9711C9.74999 20.0888 9.75165 19.5579 9.67921 19.1005L8.19768 19.3352C8.24707 19.647 8.24999 20.0338 8.25 20.9711L9.75 20.9711ZM13 12.75H16V11.25H13V12.75ZM8 8.75L16 8.75V7.25L8 7.25V8.75Z" fill="var(--icon-color-1)"/>
  </symbol>
  <symbol id="nav-news" viewBox="0 0 24 24" fill="none">
    <path d="M13.9793 19.6965L14.4674 19.1271L13.9793 19.6965ZM12.6663 18.7484L12.4164 19.4556L12.6663 18.7484ZM10.0207 19.6965L10.5088 20.266L10.0207 19.6965ZM11.3337 18.7484L11.5836 19.4556L11.3337 18.7484ZM5.34196 20.77L4.72019 21.1894L5.34196 20.77ZM7.22986 21.6383L7.14367 20.8933L7.22986 21.6383ZM18.658 20.77L19.2798 21.1894L18.658 20.77ZM16.7701 21.6383L16.8563 20.8933L16.7701 21.6383ZM15.5451 3.24472L15.3133 3.95801L15.5451 3.24472ZM18.7553 6.45492L18.042 6.68668L18.7553 6.45492ZM8.45492 3.24472L8.68668 3.95801L8.45492 3.24472ZM5.24472 6.45492L5.95801 6.68668L5.24472 6.45492ZM9 8.25C8.58579 8.25 8.25 8.58579 8.25 9C8.25 9.41421 8.58579 9.75 9 9.75V8.25ZM15 9.75C15.4142 9.75 15.75 9.41421 15.75 9C15.75 8.58579 15.4142 8.25 15 8.25V9.75ZM18.25 10V17.3874H19.75V10H18.25ZM5.75 17.3874V10H4.25V17.3874H5.75ZM14.4674 19.1271C13.8767 18.6208 13.4326 18.2237 12.9162 18.0413L12.4164 19.4556C12.6038 19.5218 12.8004 19.6739 13.4912 20.266L14.4674 19.1271ZM10.5088 20.266C11.1996 19.6739 11.3962 19.5218 11.5836 19.4556L11.0838 18.0413C10.5674 18.2237 10.1233 18.6208 9.5326 19.1271L10.5088 20.266ZM12.9162 18.0413C12.3234 17.8318 11.6766 17.8318 11.0838 18.0413L11.5836 19.4556C11.853 19.3604 12.147 19.3604 12.4164 19.4556L12.9162 18.0413ZM4.25 17.3874C4.25 18.333 4.24944 19.0872 4.29506 19.6664C4.33947 20.2302 4.43393 20.765 4.72019 21.1894L5.96372 20.3506C5.90802 20.268 5.8315 20.0701 5.79043 19.5486C5.75056 19.0425 5.75 18.3588 5.75 17.3874H4.25ZM9.5326 19.1271C8.79499 19.7593 8.27558 20.2038 7.86535 20.5029C7.44269 20.8111 7.24261 20.8818 7.14367 20.8933L7.31606 22.3833C7.82456 22.3245 8.29209 22.0482 8.74909 21.715C9.21852 21.3727 9.7908 20.8814 10.5088 20.266L9.5326 19.1271ZM4.72019 21.1894C5.2946 22.0409 6.2957 22.5014 7.31606 22.3833L7.14367 20.8933C6.67986 20.9469 6.22482 20.7376 5.96372 20.3506L4.72019 21.1894ZM18.25 17.3874C18.25 18.3588 18.2494 19.0425 18.2096 19.5486C18.1685 20.0701 18.092 20.268 18.0363 20.3506L19.2798 21.1894C19.5661 20.765 19.6605 20.2302 19.7049 19.6664C19.7506 19.0872 19.75 18.333 19.75 17.3874H18.25ZM13.4912 20.266C14.2092 20.8814 14.7815 21.3727 15.2509 21.715C15.7079 22.0482 16.1754 22.3245 16.6839 22.3833L16.8563 20.8933C16.7574 20.8818 16.5573 20.8111 16.1346 20.5029C15.7244 20.2038 15.205 19.7593 14.4674 19.1271L13.4912 20.266ZM18.0363 20.3506C17.7752 20.7376 17.3201 20.9469 16.8563 20.8933L16.6839 22.3833C17.7043 22.5014 18.7054 22.041 19.2798 21.1894L18.0363 20.3506ZM12 3.75C13.9197 3.75 14.7016 3.75925 15.3133 3.95801L15.7768 2.53142C14.8822 2.24075 13.8029 2.25 12 2.25V3.75ZM19.75 10C19.75 8.19709 19.7593 7.11777 19.4686 6.22315L18.042 6.68668C18.2407 7.29839 18.25 8.08034 18.25 10H19.75ZM15.3133 3.95801C16.6072 4.37841 17.6216 5.39282 18.042 6.68668L19.4686 6.22315C18.8998 4.47263 17.5274 3.1002 15.7768 2.53142L15.3133 3.95801ZM12 2.25C10.1971 2.25 9.11777 2.24075 8.22315 2.53142L8.68668 3.95801C9.29839 3.75925 10.0803 3.75 12 3.75V2.25ZM5.75 10C5.75 8.08034 5.75925 7.29839 5.95801 6.68668L4.53142 6.22315C4.24075 7.11777 4.25 8.19709 4.25 10H5.75ZM8.22315 2.53142C6.47263 3.1002 5.1002 4.47263 4.53142 6.22315L5.95801 6.68668C6.37841 5.39282 7.39282 4.37841 8.68668 3.95801L8.22315 2.53142ZM9 9.75H15V8.25H9V9.75Z" fill="var(--icon-color-1)"/>
    <path d="M9 8.25C8.58579 8.25 8.25 8.58579 8.25 9C8.25 9.41421 8.58579 9.75 9 9.75V8.25ZM15 9.75C15.4142 9.75 15.75 9.41421 15.75 9C15.75 8.58579 15.4142 8.25 15 8.25V9.75ZM9 9.75H15V8.25H9V9.75Z" fill="var(--icon-color-2)"/>
  </symbol>
  <symbol id="nav-support" viewBox="0 0 24 24" fill="none">
    <path d="M16.6041 19.5103L17.3005 19.2317L16.6041 19.5103ZM14.9415 20.8154L14.5056 21.4257L14.9415 20.8154ZM19.27 2.54497L18.9295 3.21322L19.27 2.54497ZM21.455 4.73005L20.7868 5.07054V5.07054L21.455 4.73005ZM6.73005 2.54497L7.07054 3.21322V3.21322L6.73005 2.54497ZM4.54497 4.73005L5.21322 5.07054L4.54497 4.73005ZM8.5205 20.3635L8.96034 20.971L8.5205 20.3635ZM8.56175 20.3337L8.99767 20.944L8.56175 20.3337ZM10.7769 19.6142L10.7818 20.3642L10.7769 19.6142ZM5.19681 20.8048L5.89446 21.0801L5.19681 20.8048ZM6.48993 21.8337L6.05009 21.2262L6.48993 21.8337ZM14.9956 15.8586L14.2465 15.8236L14.9956 15.8586ZM11.295 19.6097L11.2591 18.8606L11.295 19.6097ZM3.12337 7.42964L2.77921 6.76327L3.12337 7.42964ZM1.42386 9.15232L0.753761 8.81548L1.42386 9.15232ZM12.8766 7.42964L12.5325 8.09601L12.8766 7.42964ZM14.5761 9.15232L15.2462 8.81548L14.5761 9.15232ZM5 13.25C4.58579 13.25 4.25 13.5858 4.25 14C4.25 14.4142 4.58579 14.75 5 14.75V13.25ZM11 14.75C11.4142 14.75 11.75 14.4142 11.75 14C11.75 13.5858 11.4142 13.25 11 13.25V14.75ZM4.0404 7.13287L4.17398 7.87088L4.0404 7.13287ZM12.7481 19.2486L12.4286 18.57L12.7481 19.2486ZM12 2.75H14V1.25H12V2.75ZM21.25 10V14.2283H22.75V10H21.25ZM18.2283 17.25H17.6266V18.75H18.2283V17.25ZM17.6266 17.25C16.3169 17.25 15.4213 18.5728 15.9077 19.7888L17.3005 19.2317C17.2082 19.001 17.3781 18.75 17.6266 18.75V17.25ZM15.9077 19.7888C16.038 20.1145 15.6629 20.409 15.3774 20.2051L14.5056 21.4257C16.0101 22.5003 17.9871 20.9484 17.3005 19.2317L15.9077 19.7888ZM21.25 14.2283C21.25 15.8972 19.8972 17.25 18.2283 17.25V18.75C20.7256 18.75 22.75 16.7256 22.75 14.2283H21.25ZM14 2.75C15.4125 2.75 16.4268 2.75058 17.2229 2.81563C18.0103 2.87996 18.518 3.00359 18.9295 3.21322L19.6104 1.87671C18.9523 1.54138 18.2252 1.39252 17.3451 1.32061C16.4737 1.24942 15.3878 1.25 14 1.25V2.75ZM22.75 10C22.75 8.61224 22.7506 7.52632 22.6794 6.65494C22.6075 5.77479 22.4586 5.04768 22.1233 4.38955L20.7868 5.07054C20.9964 5.48197 21.12 5.9897 21.1844 6.77708C21.2494 7.57322 21.25 8.58749 21.25 10H22.75ZM18.9295 3.21322C19.7291 3.62068 20.3793 4.27085 20.7868 5.07054L22.1233 4.38955C21.572 3.30762 20.6924 2.42798 19.6104 1.87671L18.9295 3.21322ZM12 1.25C10.6122 1.25 9.52632 1.24942 8.65494 1.32061C7.77479 1.39252 7.04769 1.54138 6.38955 1.87671L7.07054 3.21322C7.48197 3.00359 7.9897 2.87996 8.77708 2.81563C9.57322 2.75058 10.5875 2.75 12 2.75V1.25ZM6.38955 1.87671C5.30762 2.42798 4.42798 3.30762 3.87671 4.38955L5.21322 5.07054C5.62068 4.27085 6.27085 3.62068 7.07054 3.21322L6.38955 1.87671ZM8.77778 6.25H7.22222V7.75H8.77778V6.25ZM0.25 13.3071V16.6406H1.75V13.3071H0.25ZM15.75 15.4348V13.3071H14.25V15.4348H15.75ZM3.93351 20.3641H4.40154V18.8641H3.93351V20.3641ZM6.92977 22.4412L8.96034 20.971L8.08066 19.756L6.05009 21.2262L6.92977 22.4412ZM8.96034 20.971C8.98178 20.9555 8.9899 20.9496 8.99767 20.944L8.12582 19.7234C8.11324 19.7324 8.10064 19.7416 8.08066 19.756L8.96034 20.971ZM10.8392 18.8641C10.8073 18.8641 10.7876 18.8641 10.772 18.8642L10.7818 20.3642C10.7912 20.3641 10.8047 20.3641 10.8392 20.3641V18.8641ZM8.99767 20.944C9.5211 20.5702 10.1437 20.3683 10.7818 20.3642L10.772 18.8642C9.82312 18.8704 8.89973 19.1707 8.12582 19.7234L8.99767 20.944ZM4.40154 20.3641C4.43527 20.3641 4.46435 20.378 4.48713 20.4121C4.51021 20.4467 4.51593 20.487 4.49917 20.5294L5.89446 21.0801C6.3081 20.0318 5.55185 18.8641 4.40154 18.8641V20.3641ZM4.49917 20.5294C3.92216 21.9916 5.59144 23.4102 6.92977 22.4412L6.05009 21.2262C6.01521 21.2515 5.99746 21.2503 5.9912 21.2499C5.97819 21.2492 5.95512 21.2431 5.93018 21.2232C5.90527 21.2034 5.89107 21.1798 5.88545 21.161C5.88158 21.1481 5.87698 21.1243 5.89446 21.0801L4.49917 20.5294ZM14.25 15.4348C14.25 15.6637 14.2498 15.7524 14.2465 15.8236L15.7448 15.8936C15.7502 15.7785 15.75 15.6468 15.75 15.4348H14.25ZM10.8392 20.3641C11.0719 20.3641 11.2163 20.3643 11.331 20.3588L11.2591 18.8606C11.1899 18.8639 11.0917 18.8641 10.8392 18.8641V20.3641ZM0.25 16.6406C0.25 18.6874 1.88962 20.3641 3.93351 20.3641V18.8641C2.73713 18.8641 1.75 17.8782 1.75 16.6406H0.25ZM1.75 13.3071C1.75 12.191 1.75057 11.3985 1.80056 10.7783C1.84987 10.1665 1.94359 9.78832 2.09397 9.48916L0.753761 8.81548C0.480278 9.35954 0.362065 9.95485 0.305408 10.6578C0.249432 11.3522 0.25 12.2154 0.25 13.3071H1.75ZM2.77921 6.76327C1.90555 7.21449 1.19712 7.93347 0.753761 8.81548L2.09397 9.48916C2.39629 8.88773 2.87771 8.40064 3.46753 8.09601L2.77921 6.76327ZM8.77778 7.75C9.87931 7.75 10.6597 7.7506 11.2701 7.80115C11.8714 7.85094 12.2408 7.94536 12.5325 8.09601L13.2208 6.76327C12.6806 6.48428 12.0896 6.36388 11.3939 6.30626C10.7073 6.2494 9.85423 6.25 8.77778 6.25V7.75ZM15.75 13.3071C15.75 12.2154 15.7506 11.3522 15.6946 10.6578C15.6379 9.95485 15.5197 9.35954 15.2462 8.81548L13.906 9.48916C14.0564 9.78832 14.1501 10.1665 14.1994 10.7783C14.2494 11.3985 14.25 12.191 14.25 13.3071H15.75ZM12.5325 8.09601C13.1223 8.40064 13.6037 8.88773 13.906 9.48916L15.2462 8.81548C14.8029 7.93347 14.0945 7.21449 13.2208 6.76327L12.5325 8.09601ZM5 14.75H11V13.25H5V14.75ZM7.22222 6.25C5.78087 6.25 4.72362 6.24702 3.90682 6.39486L4.17398 7.87088C4.82539 7.75298 5.71785 7.75 7.22222 7.75V6.25ZM3.90682 6.39486C3.49908 6.46866 3.12859 6.58282 2.77921 6.76327L3.46753 8.09601C3.65679 7.99827 3.87884 7.9243 4.17398 7.87088L3.90682 6.39486ZM4.78935 7.17261C4.84337 6.15438 4.96923 5.54941 5.21322 5.07054L3.87671 4.38955C3.48865 5.15118 3.34898 6.00903 3.29146 7.09313L4.78935 7.17261ZM14.2465 15.8236C14.1893 17.0474 13.459 18.085 12.4286 18.57L13.0675 19.9272C14.5921 19.2095 15.6613 17.6819 15.7448 15.8936L14.2465 15.8236ZM12.4286 18.57C12.0709 18.7385 11.6763 18.8405 11.2591 18.8606L11.331 20.3588C11.9486 20.3292 12.5355 20.1777 13.0675 19.9272L12.4286 18.57ZM15.3774 20.2051L13.184 18.6383L12.3121 19.8589L14.5056 21.4257L15.3774 20.2051Z" fill="var(--icon-color-2)"/>
    <path d="M8.5205 20.3635L8.96034 20.971L8.5205 20.3635ZM8.56175 20.3337L8.99767 20.944L8.56175 20.3337ZM10.7769 19.6142L10.7818 20.3642L10.7769 19.6142ZM5.19681 20.8048L5.89446 21.0801L5.19681 20.8048ZM6.48993 21.8337L6.05009 21.2262L6.48993 21.8337ZM14.9956 15.8586L14.2465 15.8236L14.9956 15.8586ZM11.295 19.6097L11.2591 18.8606L11.295 19.6097ZM3.12337 7.42964L2.77921 6.76327L3.12337 7.42964ZM1.42386 9.15232L0.753761 8.81548L1.42386 9.15232ZM12.8766 7.42964L12.5325 8.09601L12.8766 7.42964ZM14.5761 9.15232L15.2462 8.81548L14.5761 9.15232ZM5 13.25C4.58579 13.25 4.25 13.5858 4.25 14C4.25 14.4142 4.58579 14.75 5 14.75V13.25ZM11 14.75C11.4142 14.75 11.75 14.4142 11.75 14C11.75 13.5858 11.4142 13.25 11 13.25V14.75ZM4.0404 7.13287L4.17398 7.87088L4.0404 7.13287ZM12.7481 19.2486L12.4286 18.5701L12.7481 19.2486ZM8.77778 6.25H7.22222V7.75H8.77778V6.25ZM0.25 13.3071V16.6406H1.75V13.3071H0.25ZM15.75 15.4348V13.3071H14.25V15.4348H15.75ZM3.93351 20.3641H4.40154V18.8641H3.93351V20.3641ZM6.92977 22.4412L8.96034 20.971L8.08066 19.756L6.05009 21.2262L6.92977 22.4412ZM8.96034 20.971C8.98178 20.9555 8.9899 20.9496 8.99767 20.944L8.12582 19.7234C8.11324 19.7324 8.10064 19.7416 8.08066 19.756L8.96034 20.971ZM10.8392 18.8641C10.8073 18.8641 10.7876 18.8641 10.772 18.8642L10.7818 20.3642C10.7912 20.3641 10.8047 20.3641 10.8392 20.3641V18.8641ZM8.99767 20.944C9.5211 20.5702 10.1437 20.3683 10.7818 20.3642L10.772 18.8642C9.82312 18.8704 8.89973 19.1707 8.12582 19.7234L8.99767 20.944ZM4.40154 20.3641C4.43527 20.3641 4.46435 20.378 4.48713 20.4121C4.51021 20.4467 4.51593 20.487 4.49917 20.5294L5.89446 21.0801C6.3081 20.0318 5.55185 18.8641 4.40154 18.8641V20.3641ZM4.49917 20.5294C3.92216 21.9916 5.59144 23.4102 6.92977 22.4412L6.05009 21.2262C6.01521 21.2515 5.99746 21.2503 5.9912 21.2499C5.97819 21.2492 5.95512 21.2431 5.93018 21.2232C5.90527 21.2034 5.89107 21.1798 5.88545 21.161C5.88158 21.1481 5.87698 21.1243 5.89446 21.0801L4.49917 20.5294ZM14.25 15.4348C14.25 15.6637 14.2498 15.7524 14.2465 15.8236L15.7448 15.8936C15.7502 15.7785 15.75 15.6468 15.75 15.4348H14.25ZM10.8392 20.3641C11.0719 20.3641 11.2163 20.3643 11.331 20.3588L11.2591 18.8606C11.1899 18.8639 11.0917 18.8641 10.8392 18.8641V20.3641ZM0.25 16.6406C0.25 18.6874 1.88962 20.3641 3.93351 20.3641V18.8641C2.73713 18.8641 1.75 17.8782 1.75 16.6406H0.25ZM1.75 13.3071C1.75 12.191 1.75057 11.3985 1.80056 10.7783C1.84987 10.1665 1.94359 9.78832 2.09397 9.48916L0.753761 8.81548C0.480278 9.35954 0.362065 9.95485 0.305408 10.6578C0.249432 11.3522 0.25 12.2154 0.25 13.3071H1.75ZM2.77921 6.76327C1.90555 7.21449 1.19712 7.93347 0.753761 8.81548L2.09397 9.48916C2.39629 8.88773 2.87771 8.40064 3.46753 8.09601L2.77921 6.76327ZM8.77778 7.75C9.87931 7.75 10.6597 7.7506 11.2701 7.80115C11.8714 7.85094 12.2408 7.94536 12.5325 8.09601L13.2208 6.76327C12.6806 6.48428 12.0896 6.36388 11.3939 6.30626C10.7073 6.2494 9.85423 6.25 8.77778 6.25V7.75ZM15.75 13.3071C15.75 12.2154 15.7506 11.3522 15.6946 10.6578C15.6379 9.95485 15.5197 9.35954 15.2462 8.81548L13.906 9.48916C14.0564 9.78832 14.1501 10.1665 14.1994 10.7783C14.2494 11.3985 14.25 12.191 14.25 13.3071H15.75ZM12.5325 8.09601C13.1223 8.40064 13.6037 8.88773 13.906 9.48916L15.2462 8.81548C14.8029 7.93347 14.0945 7.21449 13.2208 6.76327L12.5325 8.09601ZM5 14.75H11V13.25H5V14.75ZM7.22222 6.25C5.78087 6.25 4.72362 6.24702 3.90682 6.39486L4.17398 7.87088C4.82539 7.75298 5.71785 7.75 7.22222 7.75V6.25ZM3.90682 6.39486C3.49908 6.46866 3.12859 6.58282 2.77921 6.76327L3.46753 8.09601C3.65679 7.99827 3.87884 7.9243 4.17398 7.87088L3.90682 6.39486ZM14.2465 15.8236C14.1893 17.0474 13.459 18.085 12.4286 18.5701L13.0675 19.9272C14.5921 19.2095 15.6613 17.6819 15.7448 15.8936L14.2465 15.8236ZM12.4286 18.5701C12.0709 18.7385 11.6763 18.8405 11.2591 18.8606L11.331 20.3588C11.9486 20.3292 12.5355 20.1777 13.0675 19.9272L12.4286 18.5701Z" fill="var(--icon-color-1)"/>
  </symbol>
  <symbol id="nav-communities" viewBox="0 0 24 24" fill="none">
    <path d="M14.25 7.75C14.25 8.99264 13.2426 10 12 10V11.5C14.0711 11.5 15.75 9.82107 15.75 7.75H14.25ZM12 10C10.7574 10 9.75 8.99264 9.75 7.75H8.25C8.25 9.82107 9.92893 11.5 12 11.5V10ZM9.75 7.75C9.75 6.50736 10.7574 5.5 12 5.5V4C9.92893 4 8.25 5.67893 8.25 7.75H9.75ZM12 5.5C13.2426 5.5 14.25 6.50736 14.25 7.75H15.75C15.75 5.67893 14.0711 4 12 4V5.5ZM9 14.5H15V13H9V14.5ZM15 19H9V20.5H15V19ZM9 19C7.75736 19 6.75 17.9926 6.75 16.75H5.25C5.25 18.8211 6.92893 20.5 9 20.5V19ZM17.25 16.75C17.25 17.9926 16.2426 19 15 19V20.5C17.0711 20.5 18.75 18.8211 18.75 16.75H17.25ZM15 14.5C16.2426 14.5 17.25 15.5074 17.25 16.75H18.75C18.75 14.6789 17.0711 13 15 13V14.5ZM9 13C6.92893 13 5.25 14.6789 5.25 16.75H6.75C6.75 15.5074 7.75736 14.5 9 14.5V13Z" fill="var(--icon-color-1)"/>
    <path d="M7.75214 10.3887C7.59441 10.1353 7.29846 10 7 10C5.75736 10 4.75 8.99264 4.75 7.75C4.75 6.50736 5.75736 5.5 7 5.5C7.29846 5.5 7.59441 5.36473 7.75214 5.11135C7.75912 5.10014 7.76613 5.08896 7.7732 5.07782C8.0358 4.66331 7.90275 4.0764 7.415 4.0227C7.27873 4.0077 7.14027 4 7 4C4.92893 4 3.25 5.67893 3.25 7.75C3.25 9.82107 4.92893 11.5 7 11.5C7.14027 11.5 7.27873 11.4923 7.415 11.4773C7.90275 11.4236 8.0358 10.8367 7.7732 10.4222C7.76614 10.411 7.75912 10.3999 7.75214 10.3887Z" fill="var(--icon-color-2)"/>
    <path d="M4.70829 18.3169C4.59477 18.1275 4.39439 18 4.17359 18H4C2.75736 18 1.75 16.9926 1.75 15.75C1.75 14.5074 2.75736 13.5 4 13.5H4.17359C4.39439 13.5 4.59477 13.3725 4.70829 13.1831C4.98539 12.7208 4.68468 12 4.14569 12H4C1.92893 12 0.25 13.6789 0.25 15.75C0.25 17.8211 1.92893 19.5 4 19.5H4.14569C4.68469 19.5 4.98539 18.7792 4.70829 18.3169Z" fill="var(--icon-color-2)"/>
    <path d="M16.2268 10.4222C15.9642 10.8367 16.0973 11.4236 16.585 11.4773C16.7213 11.4923 16.8597 11.5 17 11.5C19.0711 11.5 20.75 9.82107 20.75 7.75C20.75 5.67893 19.0711 4 17 4C16.8597 4 16.7213 4.0077 16.585 4.0227C16.0973 4.0764 15.9642 4.66331 16.2268 5.07782C16.2339 5.08896 16.2409 5.10014 16.2479 5.11134C16.4056 5.36472 16.7015 5.5 17 5.5C18.2426 5.5 19.25 6.50736 19.25 7.75C19.25 8.99264 18.2426 10 17 10C16.7015 10 16.4056 10.1353 16.2479 10.3887C16.2409 10.3999 16.2339 10.411 16.2268 10.4222Z" fill="var(--icon-color-2)"/>
    <path d="M19.2917 18.3169C19.0146 18.7792 19.3153 19.5 19.8543 19.5H20C22.0711 19.5 23.75 17.8211 23.75 15.75C23.75 13.6789 22.0711 12 20 12H19.8543C19.3153 12 19.0146 12.7208 19.2917 13.1831C19.4052 13.3725 19.6056 13.5 19.8264 13.5H20C21.2426 13.5 22.25 14.5074 22.25 15.75C22.25 16.9926 21.2426 18 20 18H19.8264C19.6056 18 19.4052 18.1275 19.2917 18.3169Z" fill="var(--icon-color-2)"/>
  </symbol>
  <symbol id="nav-vacancies" viewBox="0 0 24 24" fill="none">
    <path d="M6.08167 10C6.08167 9.44772 6.52938 9 7.08167 9H9.08167C9.63395 9 10.0817 9.44772 10.0817 10V12C10.0817 12.5523 9.63395 13 9.08167 13H7.08167C6.52938 13 6.08167 12.5523 6.08167 12V10Z" fill="var(--icon-color-1)"/>
    <path d="M8.68496 22.9598L8.59009 23.7038L8.68496 22.9598ZM4.25979 18.068L3.51999 18.1913L4.25979 18.068ZM4.52904 19.4392L5.2473 19.2234L4.52904 19.4392ZM15.9038 18.068L15.164 17.9447L15.9038 18.068ZM15.6345 19.4392L14.9163 19.2234L15.6345 19.4392ZM11.4786 22.9598L11.5735 23.7038L11.4786 22.9598ZM13.6975 5.23602L13.9252 4.52142L13.6975 5.23602ZM16.7666 12.8912L16.0268 12.7679L16.7666 12.8912ZM17.1282 9.28579L17.8705 9.17866L17.1282 9.28579ZM6.46603 5.23602L6.23832 4.52142L6.46603 5.23602ZM3.39697 12.8912L4.13677 12.7679L3.39697 12.8912ZM3.03536 9.28579L2.29305 9.17866L3.03536 9.28579ZM7.33178 12C7.33178 12.4142 7.66757 12.75 8.08178 12.75C8.496 12.75 8.83178 12.4142 8.83178 12H7.33178ZM8.08178 6H8.83178H8.08178ZM9.41096 3.33541C9.5962 3.70589 10.0467 3.85606 10.4172 3.67082C10.7877 3.48558 10.9378 3.03507 10.7526 2.66459L9.41096 3.33541ZM10.029 2.89443L10.6998 2.55902V2.55902L10.029 2.89443ZM10.029 1.10557L9.35818 0.770162L9.35818 0.770163L10.029 1.10557ZM10.7526 1.33541C10.9378 0.964928 10.7877 0.514423 10.4172 0.32918C10.0467 0.143938 9.59621 0.294105 9.41096 0.664589L10.7526 1.33541ZM5.41096 2.66459C5.22572 3.03507 5.37589 3.48558 5.74637 3.67082C6.11686 3.85606 6.56736 3.70589 6.7526 3.33541L5.41096 2.66459ZM6.13457 2.89443L5.46375 2.55902L5.46375 2.55902L6.13457 2.89443ZM6.13457 1.10557L5.46375 1.44098L5.46375 1.44098L6.13457 1.10557ZM6.7526 0.66459C6.56736 0.294106 6.11686 0.143938 5.74637 0.32918C5.37589 0.514421 5.22572 0.964926 5.41096 1.33541L6.7526 0.66459ZM13.411 2.66459C13.2257 3.03507 13.3759 3.48557 13.7464 3.67082C14.1169 3.85606 14.5674 3.7059 14.7526 3.33541L13.411 2.66459ZM14.1346 2.89443L14.8054 3.22984L14.8054 3.22984L14.1346 2.89443ZM14.1346 1.10557L13.4637 1.44098L13.4637 1.44098L14.1346 1.10557ZM14.7526 0.664591C14.5674 0.294107 14.1169 0.143938 13.7464 0.329179C13.3759 0.51442 13.2257 0.964925 13.411 1.33541L14.7526 0.664591ZM8.08178 5.01877L8.05517 4.26924L8.08178 5.01877ZM4.99958 17.9447L4.13677 12.7679L2.65718 13.0145L3.51999 18.1913L4.99958 17.9447ZM10.0818 22.25C9.33863 22.25 9.03588 22.2485 8.77983 22.2159L8.59009 23.7038C8.96394 23.7515 9.38244 23.75 10.0818 23.75V22.25ZM3.51999 18.1913C3.63496 18.8812 3.7023 19.2942 3.81078 19.6551L5.2473 19.2234C5.17299 18.9762 5.12176 18.6778 4.99958 17.9447L3.51999 18.1913ZM8.77983 22.2159C7.11467 22.0035 5.73049 20.831 5.2473 19.2234L3.81078 19.6551C4.46452 21.8301 6.33722 23.4165 8.59009 23.7038L8.77983 22.2159ZM15.164 17.9447C15.0418 18.6778 14.9906 18.9762 14.9163 19.2234L16.3528 19.6551C16.4613 19.2942 16.5286 18.8812 16.6436 18.1913L15.164 17.9447ZM10.0818 23.75C10.7811 23.75 11.1996 23.7515 11.5735 23.7038L11.3837 22.2159C11.1277 22.2485 10.8249 22.25 10.0818 22.25V23.75ZM14.9163 19.2234C14.4331 20.831 13.0489 22.0035 11.3837 22.2159L11.5735 23.7038C13.8263 23.4165 15.699 21.8301 16.3528 19.6551L14.9163 19.2234ZM10.0818 5.75C12.0593 5.75 12.8689 5.75914 13.4698 5.95062L13.9252 4.52142C13.0448 4.24086 11.9377 4.25 10.0818 4.25V5.75ZM13.4698 5.95062C15.0209 6.44487 16.1534 7.7817 16.3859 9.39292L17.8705 9.17866C17.5559 6.99877 16.0238 5.19012 13.9252 4.52142L13.4698 5.95062ZM4.13677 12.7679C3.81168 10.8173 3.68758 10.0171 3.77767 9.39292L2.29305 9.17866C2.16105 10.0933 2.35206 11.1837 2.65718 13.0145L4.13677 12.7679ZM6.23832 4.52142C4.13981 5.19012 2.60765 6.99877 2.29305 9.17866L3.77767 9.39292C4.0102 7.7817 5.14267 6.44487 6.69374 5.95062L6.23832 4.52142ZM19.3318 14C19.3318 15.2426 18.3244 16.25 17.0818 16.25V17.75C19.1529 17.75 20.8318 16.0711 20.8318 14H19.3318ZM17.0818 11.75C18.3244 11.75 19.3318 12.7574 19.3318 14H20.8318C20.8318 11.9289 19.1529 10.25 17.0818 10.25V11.75ZM8.83178 12L8.83178 6H7.33178L7.33178 12H8.83178ZM10.7526 2.66459L10.6998 2.55902L9.35818 3.22984L9.41096 3.33541L10.7526 2.66459ZM10.6998 1.44098L10.7526 1.33541L9.41096 0.664589L9.35818 0.770162L10.6998 1.44098ZM10.6998 2.55902C10.5239 2.20711 10.5239 1.79289 10.6998 1.44098L9.35818 0.770163C8.97108 1.54436 8.97108 2.45564 9.35818 3.22984L10.6998 2.55902ZM6.7526 3.33541L6.80539 3.22984L5.46375 2.55902L5.41096 2.66459L6.7526 3.33541ZM6.80539 0.770162L6.7526 0.66459L5.41096 1.33541L5.46375 1.44098L6.80539 0.770162ZM6.80539 3.22984C7.19249 2.45564 7.19249 1.54436 6.80539 0.770162L5.46375 1.44098C5.6397 1.79289 5.6397 2.20711 5.46375 2.55902L6.80539 3.22984ZM14.7526 3.33541L14.8054 3.22984L13.4638 2.55901L13.411 2.66459L14.7526 3.33541ZM14.8054 0.770163L14.7526 0.664591L13.411 1.33541L13.4637 1.44098L14.8054 0.770163ZM14.8054 3.22984C15.1925 2.45564 15.1925 1.54436 14.8054 0.770162L13.4637 1.44098C13.6397 1.79289 13.6397 2.20711 13.4637 2.55902L14.8054 3.22984ZM17.5064 13.0145C17.634 12.2488 17.7384 11.6227 17.8089 11.1003L16.3224 10.8997C16.2557 11.3939 16.1558 11.9939 16.0268 12.7679L17.5064 13.0145ZM17.8089 11.1003C17.9109 10.3442 17.9518 9.74155 17.8705 9.17866L16.3859 9.39292C16.4363 9.74231 16.42 10.1756 16.3224 10.8997L17.8089 11.1003ZM17.0818 10.25H17.0656V11.75H17.0818V10.25ZM17.0818 16.25C16.825 16.25 16.5798 16.2073 16.3518 16.1292L15.8655 17.5481C16.2479 17.6792 16.6574 17.75 17.0818 17.75V16.25ZM16.0268 12.7679L15.3689 16.7154L16.8485 16.962L17.5064 13.0145L16.0268 12.7679ZM15.3689 16.7154L15.164 17.9447L16.6436 18.1913L16.8485 16.962L15.3689 16.7154ZM10.0818 4.25C9.2625 4.25 8.60019 4.24989 8.05517 4.26924L8.10839 5.7683C8.62078 5.75011 9.25254 5.75 10.0818 5.75V4.25ZM8.05517 4.26924C7.3353 4.2948 6.75998 4.35519 6.23832 4.52142L6.69374 5.95062C7.01639 5.8478 7.42682 5.7925 8.10839 5.7683L8.05517 4.26924ZM8.83178 6V5.01877H7.33178V6H8.83178Z" fill="var(--icon-color-1)"/>
  </symbol>
  <symbol id="nav-pages" viewBox="0 0 24 24" fill="none">
    <path d="M19.2178 8.93844L19.1005 9.67921H19.1005L19.2178 8.93844ZM15.0616 4.78217L14.3208 4.8995V4.8995L15.0616 4.78217ZM5.06107 20.0451L5.50191 19.4383L5.06107 20.0451ZM3.95491 18.9389L4.56168 18.4981L3.95491 18.9389ZM20.0451 18.9389L19.4383 18.4981L20.0451 18.9389ZM18.9389 20.0451L18.4981 19.4383L18.9389 20.0451ZM18.9389 3.95491L19.3798 3.34815L18.9389 3.95491ZM20.0451 5.06107L20.6518 4.62023L20.0451 5.06107ZM5.06107 3.95491L5.50191 4.56168L5.06107 3.95491ZM3.95491 5.06107L4.56168 5.50191L3.95491 5.06107ZM15 3.02893L15.0257 2.27937L15 3.02893ZM20.9711 9L21.7206 8.97432L20.9711 9ZM8 12.25C7.58579 12.25 7.25 12.5858 7.25 13C7.25 13.4142 7.58579 13.75 8 13.75V12.25ZM14 13.75C14.4142 13.75 14.75 13.4142 14.75 13C14.75 12.5858 14.4142 12.25 14 12.25V13.75ZM10.25 16C10.25 16.4142 10.5858 16.75 11 16.75C11.4142 16.75 11.75 16.4142 11.75 16H10.25ZM11.75 10C11.75 9.58579 11.4142 9.25 11 9.25C10.5858 9.25 10.25 9.58579 10.25 10H11.75ZM19.3352 8.19768C17.5166 7.90965 16.0904 6.48339 15.8023 4.66485L14.3208 4.8995C14.7105 7.35988 16.6401 9.28952 19.1005 9.67921L19.3352 8.19768ZM12 20.25C10.1084 20.25 8.74999 20.249 7.69804 20.135C6.66013 20.0225 6.00992 19.8074 5.50191 19.4383L4.62023 20.6518C5.42656 21.2377 6.37094 21.5 7.53648 21.6263C8.68798 21.751 10.1418 21.75 12 21.75V20.25ZM2.25 12C2.25 13.8582 2.24897 15.312 2.37373 16.4635C2.50001 17.6291 2.76232 18.5734 3.34815 19.3798L4.56168 18.4981C4.19259 17.9901 3.97745 17.3399 3.865 16.302C3.75103 15.25 3.75 13.8916 3.75 12H2.25ZM5.50191 19.4383C5.14111 19.1762 4.82382 18.8589 4.56168 18.4981L3.34815 19.3798C3.70281 19.8679 4.13209 20.2972 4.62023 20.6518L5.50191 19.4383ZM20.25 12C20.25 13.8916 20.249 15.25 20.135 16.302C20.0225 17.3399 19.8074 17.9901 19.4383 18.4981L20.6518 19.3798C21.2377 18.5734 21.5 17.6291 21.6263 16.4635C21.751 15.312 21.75 13.8582 21.75 12H20.25ZM12 21.75C13.8582 21.75 15.312 21.751 16.4635 21.6263C17.6291 21.5 18.5734 21.2377 19.3798 20.6518L18.4981 19.4383C17.9901 19.8074 17.3399 20.0225 16.302 20.135C15.25 20.249 13.8916 20.25 12 20.25V21.75ZM19.4383 18.4981C19.1762 18.8589 18.8589 19.1762 18.4981 19.4383L19.3798 20.6518C19.8679 20.2972 20.2972 19.8679 20.6518 19.3798L19.4383 18.4981ZM18.4981 4.56168C18.8589 4.82382 19.1762 5.14111 19.4383 5.50191L20.6518 4.62023C20.2972 4.13209 19.8679 3.70281 19.3798 3.34815L18.4981 4.56168ZM12 2.25C10.1418 2.25 8.68798 2.24897 7.53648 2.37373C6.37094 2.50001 5.42656 2.76232 4.62023 3.34815L5.50191 4.56168C6.00992 4.19259 6.66013 3.97745 7.69804 3.865C8.74999 3.75103 10.1084 3.75 12 3.75V2.25ZM3.75 12C3.75 10.1084 3.75103 8.74999 3.865 7.69804C3.97745 6.66013 4.19259 6.00992 4.56168 5.50191L3.34815 4.62023C2.76232 5.42656 2.50001 6.37094 2.37373 7.53648C2.24897 8.68798 2.25 10.1418 2.25 12H3.75ZM4.62023 3.34815C4.13209 3.70281 3.70281 4.13209 3.34815 4.62023L4.56168 5.50191C4.82382 5.14111 5.14111 4.82382 5.50191 4.56168L4.62023 3.34815ZM12 3.75C13.1731 3.75 14.1456 3.75009 14.9743 3.77849L15.0257 2.27937C14.1658 2.24991 13.1648 2.25 12 2.25V3.75ZM14.9743 3.77849C16.8292 3.84204 17.7925 4.04907 18.4981 4.56168L19.3798 3.34815C18.2761 2.5463 16.8991 2.34355 15.0257 2.27937L14.9743 3.77849ZM14.25 3.02893C14.25 3.91121 14.2484 4.44215 14.3208 4.8995L15.8023 4.66485C15.7529 4.35298 15.75 3.96617 15.75 3.02892L14.25 3.02893ZM21.75 12C21.75 10.8352 21.7501 9.83424 21.7206 8.97432L20.2215 9.02568C20.2499 9.85445 20.25 10.8269 20.25 12H21.75ZM21.7206 8.97432C21.6564 7.10087 21.4537 5.7239 20.6518 4.62023L19.4383 5.50191C19.9509 6.20746 20.158 7.17075 20.2215 9.02568L21.7206 8.97432ZM20.9711 8.25C20.0338 8.24999 19.647 8.24707 19.3352 8.19768L19.1005 9.67921C19.5579 9.75165 20.0888 9.74999 20.9711 9.75L20.9711 8.25ZM8 13.75H14V12.25H8V13.75ZM11.75 16L11.75 10H10.25L10.25 16H11.75Z" fill="var(--icon-color-1)"/>
  </symbol>
  <symbol id="nav-settings" viewBox="0 0 24 24" fill="none">
    <path d="M12 4.25C11.5858 4.25 11.25 4.58579 11.25 5C11.25 5.41421 11.5858 5.75 12 5.75V4.25ZM20 5.75C20.4142 5.75 20.75 5.41421 20.75 5C20.75 4.58579 20.4142 4.25 20 4.25V5.75ZM12 18.25C11.5858 18.25 11.25 18.5858 11.25 19C11.25 19.4142 11.5858 19.75 12 19.75V18.25ZM20 19.75C20.4142 19.75 20.75 19.4142 20.75 19C20.75 18.5858 20.4142 18.25 20 18.25V19.75ZM12 12.75C12.4142 12.75 12.75 12.4142 12.75 12C12.75 11.5858 12.4142 11.25 12 11.25V12.75ZM4 11.25C3.58579 11.25 3.25 11.5858 3.25 12C3.25 12.4142 3.58579 12.75 4 12.75L4 11.25ZM12 5.75L20 5.75V4.25L12 4.25V5.75ZM12 19.75H20V18.25H12V19.75ZM12 11.25L4 11.25L4 12.75L12 12.75V11.25ZM3.25 5C3.25 6.51878 4.48122 7.75 6 7.75V6.25C5.30964 6.25 4.75 5.69036 4.75 5H3.25ZM6 7.75C7.51878 7.75 8.75 6.51878 8.75 5H7.25C7.25 5.69036 6.69036 6.25 6 6.25V7.75ZM8.75 5C8.75 3.48122 7.51878 2.25 6 2.25V3.75C6.69036 3.75 7.25 4.30964 7.25 5H8.75ZM6 2.25C4.48122 2.25 3.25 3.48122 3.25 5H4.75C4.75 4.30964 5.30964 3.75 6 3.75V2.25ZM3.25 19C3.25 20.5188 4.48122 21.75 6 21.75V20.25C5.30964 20.25 4.75 19.6904 4.75 19H3.25ZM6 21.75C7.51878 21.75 8.75 20.5188 8.75 19H7.25C7.25 19.6904 6.69036 20.25 6 20.25V21.75ZM8.75 19C8.75 17.4812 7.51878 16.25 6 16.25V17.75C6.69036 17.75 7.25 18.3096 7.25 19H8.75ZM6 16.25C4.48122 16.25 3.25 17.4812 3.25 19H4.75C4.75 18.3096 5.30964 17.75 6 17.75V16.25ZM20.75 12C20.75 10.4812 19.5188 9.25 18 9.25V10.75C18.6904 10.75 19.25 11.3096 19.25 12H20.75ZM18 9.25C16.4812 9.25 15.25 10.4812 15.25 12H16.75C16.75 11.3096 17.3096 10.75 18 10.75V9.25ZM15.25 12C15.25 13.5188 16.4812 14.75 18 14.75V13.25C17.3096 13.25 16.75 12.6904 16.75 12H15.25ZM18 14.75C19.5188 14.75 20.75 13.5188 20.75 12H19.25C19.25 12.6904 18.6904 13.25 18 13.25V14.75Z" fill="var(--icon-color-1)"/>
  </symbol>
</svg>
